<?xml version="1.0" encoding="UTF-8" standalone="no"?>
<!-- Created with Inkscape (http://www.inkscape.org/) -->

<svg
   xmlns:dc="http://purl.org/dc/elements/1.1/"
   xmlns:cc="http://creativecommons.org/ns#"
   xmlns:rdf="http://www.w3.org/1999/02/22-rdf-syntax-ns#"
   xmlns:svg="http://www.w3.org/2000/svg"
   xmlns="http://www.w3.org/2000/svg"
   xmlns:sodipodi="http://sodipodi.sourceforge.net/DTD/sodipodi-0.dtd"
   xmlns:inkscape="http://www.inkscape.org/namespaces/inkscape"
   width="512"
   height="512"
   viewBox="0 0 135.46666 135.46667"
   version="1.1"
   id="svg8"
   sodipodi:docname="logo.svg"
   inkscape:version="0.92.4 (5da689c313, 2019-01-14)"
   inkscape:export-filename="favicon.png"
   inkscape:export-xdpi="96"
   inkscape:export-ydpi="96">
  <defs
     id="defs2" />
  <sodipodi:namedview
     id="base"
     pagecolor="#ffffff"
     bordercolor="#666666"
     borderopacity="1.0"
     inkscape:pageopacity="0.0"
     inkscape:pageshadow="2"
     inkscape:zoom="0.7"
     inkscape:cx="-427.2182"
     inkscape:cy="25.062594"
     inkscape:document-units="mm"
     inkscape:current-layer="layer1"
     showgrid="false"
     units="px"
     inkscape:window-width="1918"
     inkscape:window-height="1059"
     inkscape:window-x="0"
     inkscape:window-y="19"
     inkscape:window-maximized="0" />
  <metadata
     id="metadata5">
    <rdf:RDF>
      <cc:Work
         rdf:about="">
        <dc:format>image/svg+xml</dc:format>
        <dc:type
           rdf:resource="http://purl.org/dc/dcmitype/StillImage" />
        <dc:title />
      </cc:Work>
    </rdf:RDF>
  </metadata>
  <g
     inkscape:label="Capa 1"
     inkscape:groupmode="layer"
     id="layer1"
     transform="translate(0,-161.53332)">
    <rect
       style="fill:#000000;stroke-width:0.26458332"
       id="rect33"
       width="216.20239"
       height="202.21725"
       x="-241.1488"
       y="213.46725" />
    <rect
       id="rect3944"
       width="135.46666"
       height="135.46666"
       x="3.5603841e-06"
       y="161.53333"
       style="stroke-width:0.40610987;fill:#000000" />
    <path
       style="fill:#000000;stroke-width:0.35277781"
       d="M -204.97424,100.01382 V 28.047157 h 31.22084 31.22083 v 1.940278 1.940278 h -29.45694 -29.45695 v 68.262497 68.26252 h 67.73334 67.73334 V 141.818 115.18328 h 1.94028 1.94027 v 28.39861 28.39861 h -71.4375 -71.43751 z m 21.73489,55.55117 c -0.78532,-0.78532 -1.02359,-2.56579 -0.85603,-6.39684 0.13407,-3.06533 0.22889,-3.45066 1.00353,-4.07793 0.63628,-0.51522 1.17365,-0.64109 2.0972,-0.49122 1.4926,0.24222 2.12597,1.01028 2.12597,2.57809 0,0.90617 -0.14797,1.1673 -0.66146,1.1673 -0.45613,0 -0.72872,-0.3363 -0.87813,-1.08337 -0.1751,-0.87549 -0.36971,-1.06164 -1.01424,-0.97014 -0.76371,0.10843 -0.80135,0.27043 -0.88676,3.8174 -0.0966,4.01234 0.18523,5.01818 1.22568,4.37414 0.34508,-0.2136 0.67764,-0.80891 0.73903,-1.32292 0.0777,-0.65018 0.31919,-0.93455 0.79375,-0.93455 0.55605,0 0.68213,0.25071 0.68213,1.35643 0,0.86607 -0.23323,1.5675 -0.64514,1.94028 -0.81032,0.73333 -3.00994,0.75892 -3.72553,0.0433 z m 8.3941,-0.20138 c -0.53933,-0.59539 -0.69662,-1.40941 -0.79652,-4.12224 -0.14949,-4.05977 0.31621,-5.96115 1.57749,-6.44069 1.40912,-0.53574 2.22067,-0.3994 3.14913,0.52907 0.82352,0.82351 0.86591,1.07397 0.86591,5.11527 0,3.779 -0.0781,4.32747 -0.70555,4.95493 -0.97483,0.97483 -3.19235,0.95513 -4.09046,-0.0363 z m 2.85574,-4.90739 v -4.05211 h -0.88195 c -0.87746,0 -0.88246,0.0186 -0.98288,3.65266 -0.10441,3.77815 0.18075,4.77589 1.30322,4.55972 0.47475,-0.0914 0.56161,-0.73483 0.56161,-4.16027 z m 5.46805,0.005 v -5.64445 h 0.98031 c 0.93078,0 1.02435,0.15596 1.85208,3.08681 l 0.87178,3.0868 0.10193,-3.0868 c 0.0996,-3.01678 0.12162,-3.08681 0.97014,-3.08681 h 0.86821 v 5.64445 5.64444 h -0.8606 c -0.77654,0 -0.95055,-0.3015 -1.78157,-3.0868 -1.337,-4.48121 -1.40478,-4.50488 -1.51531,-0.52917 -0.0925,3.32522 -0.15628,3.61597 -0.79375,3.61597 -0.66022,0 -0.69322,-0.26868 -0.69322,-5.64444 z m 10.23056,0.70555 v -4.93889 h -0.88195 c -0.64675,0 -0.88194,-0.18814 -0.88194,-0.70555 0,-0.64284 0.23519,-0.70556 2.64583,-0.70556 2.41065,0 2.64584,0.0627 2.64584,0.70556 0,0.51741 -0.23519,0.70555 -0.88195,0.70555 h -0.88194 v 4.93889 4.93889 h -0.88195 -0.88194 z m 6.70278,-0.70555 v -5.64445 h 2.29305 c 2.03525,0 2.29306,0.0771 2.29306,0.68527 0,0.55401 -0.28721,0.70606 -1.49931,0.79375 -1.49201,0.10796 -1.49983,0.11577 -1.60778,1.60779 l -0.10848,1.4993 h 1.43139 c 1.29164,0 1.4314,0.0861 1.4314,0.88195 0,0.79573 -0.13982,0.88194 -1.43044,0.88194 h -1.43044 l 0.10752,1.6757 0.10753,1.67569 1.4993,0.10848 c 1.2121,0.0877 1.49931,0.23975 1.49931,0.79375 0,0.60823 -0.25781,0.68527 -2.29306,0.68527 h -2.29305 z m 8.11389,0 v -5.64445 h 1.05161 c 0.80051,0 1.09582,0.18953 1.23678,0.79375 0.10184,0.43657 0.40034,1.74625 0.66334,2.91042 l 0.47817,2.11667 0.36851,-1.41111 c 0.20268,-0.77612 0.50756,-2.04612 0.67751,-2.82223 0.27452,-1.25368 0.43565,-1.42344 1.44431,-1.52165 l 1.13532,-0.11055 v 5.6668 c 0,5.43161 -0.0293,5.66679 -0.70555,5.66679 -0.66146,0 -0.70556,-0.23518 -0.70556,-3.76296 0,-2.06963 -0.10053,-3.66243 -0.2234,-3.53956 -0.12287,0.12287 -0.48565,1.37854 -0.80616,2.79038 -0.83564,3.68092 -1.49804,3.6412 -2.41337,-0.14469 l -0.70788,-2.92789 -0.0413,3.79236 c -0.0386,3.54342 -0.0876,3.79236 -0.74682,3.79236 -0.67616,0 -0.70555,-0.23518 -0.70555,-5.64444 z m 10.93611,0 v -5.64445 h 1.91467 c 1.64827,0 2.01641,0.12933 2.64584,0.92952 0.81423,1.03513 0.94811,2.79446 0.3179,4.17762 -0.38561,0.84632 -0.78829,1.05206 -2.58536,1.32097 -0.61284,0.0917 -0.71926,0.41798 -0.80986,2.48318 -0.0916,2.0883 -0.1882,2.3776 -0.79375,2.3776 -0.65534,0 -0.68944,-0.27917 -0.68944,-5.64444 z m 3.31364,-1.26358 c 0.60863,-1.58606 -0.21073,-3.28833 -1.36887,-2.84391 -0.36772,0.14111 -0.53366,0.70186 -0.53366,1.80336 0,1.4509 0.078,1.59857 0.8442,1.59857 0.46431,0 0.94056,-0.25111 1.05833,-0.55802 z m 5.50375,5.94334 c -0.69644,-0.88537 -0.74929,-1.30491 -0.64296,-5.10365 0.12972,-4.63446 0.34355,-5.1015 2.49561,-5.45073 1.05446,-0.17112 1.42818,-0.0509 2.18043,0.70135 0.86636,0.86636 0.90786,1.08707 0.90786,4.82765 0,5.09438 -0.4242,5.97441 -2.88481,5.98466 -0.997,0.004 -1.47297,-0.21791 -2.05613,-0.95928 z m 3.00067,-4.6846 v -4.05211 h -0.88195 c -0.87746,0 -0.88246,0.0186 -0.98288,3.65266 -0.10441,3.77815 0.18075,4.77589 1.30322,4.55972 0.47475,-0.0914 0.56161,-0.73483 0.56161,-4.16027 z m 5.46805,0.005 v -5.64445 h 1.94028 c 1.46991,0 2.11132,0.17105 2.64583,0.70556 0.87699,0.87699 0.94519,3.18964 0.13453,4.56198 -0.52652,0.89133 -0.52605,1.1214 0.006,2.95177 0.31739,1.09179 0.67071,2.2291 0.78516,2.52733 0.15479,0.40338 -0.0303,0.54225 -0.72268,0.54225 -0.51192,0 -0.9978,-0.19844 -1.07973,-0.44097 -0.0819,-0.24253 -0.40571,-1.35378 -0.71951,-2.46944 -0.31381,-1.11566 -0.71804,-2.02848 -0.8983,-2.02848 -0.18026,0 -0.32775,1.11125 -0.32775,2.46945 0,2.39889 -0.0252,2.46944 -0.88194,2.46944 h -0.88194 v -5.64444 z m 2.96976,-0.91969 c 0.37287,-0.14309 0.55802,-0.65728 0.55802,-1.54976 0,-1.25656 -0.41416,-1.76389 -1.43997,-1.76389 -0.17815,0 -0.32392,0.79375 -0.32392,1.76389 0,1.75972 0.15146,1.95437 1.20587,1.54976 z m 5.25062,5.77038 c 0.10063,-0.43656 0.54671,-2.97656 0.99127,-5.64444 l 0.80831,-4.8507 h 1.16363 c 0.64,0 1.16516,0.11907 1.16703,0.26459 0.002,0.14552 0.39721,2.56645 0.87855,5.37986 0.48134,2.8134 0.87669,5.23434 0.87855,5.37986 0.002,0.14552 -0.38342,0.26458 -0.8562,0.26458 -0.71194,0 -0.87858,-0.19694 -0.97014,-1.14653 -0.0868,-0.90059 -0.29116,-1.17206 -0.95259,-1.26558 -0.93861,-0.13272 -1.43749,0.42578 -1.44561,1.61836 -0.004,0.6189 -0.20811,0.79375 -0.92559,0.79375 -0.7733,0 -0.89098,-0.1267 -0.73721,-0.79375 z m 3.38639,-5.11528 c -0.1517,-0.92163 -0.30406,-1.91382 -0.33859,-2.20486 -0.0905,-0.76256 -0.5937,1.37688 -0.64311,2.73403 -0.0325,0.89355 0.1016,1.14653 0.60789,1.14653 0.57853,0 0.61944,-0.18342 0.37381,-1.6757 z m 5.67934,0.26459 v -5.64445 h 0.98031 c 0.93078,0 1.02435,0.15596 1.85208,3.08681 l 0.87178,3.0868 0.10193,-3.0868 c 0.0996,-3.01678 0.12163,-3.08681 0.97014,-3.08681 h 0.86821 v 5.64445 5.64444 h -0.87061 c -0.78949,0 -0.95595,-0.28759 -1.78669,-3.0868 -1.32984,-4.48096 -1.38972,-4.50208 -1.50018,-0.52917 -0.0925,3.32522 -0.15628,3.61597 -0.79375,3.61597 -0.66022,0 -0.69322,-0.26868 -0.69322,-5.64444 z m 9.17223,0 v -5.64445 h 2.46944 c 2.23426,0 2.46945,0.0672 2.46945,0.70556 0,0.60103 -0.23519,0.70555 -1.5875,0.70555 h -1.5875 v 1.5875 c 0,1.5791 0.007,1.5875 1.23472,1.5875 1.08185,0 1.23472,0.1092 1.23472,0.88195 0,0.77275 -0.15287,0.88194 -1.23472,0.88194 h -1.23472 v 1.76389 1.76389 h 1.5875 c 1.35231,0 1.5875,0.10453 1.5875,0.70556 0,0.63836 -0.23519,0.70555 -2.46945,0.70555 h -2.46944 z m 7.76223,5.02708 c 0.001,-0.65629 0.83341,-5.7342 1.44541,-8.81944 0.34233,-1.7258 0.43738,-1.85209 1.39398,-1.85209 1.20242,0 1.10103,-0.29239 2.23249,6.4382 l 0.81544,4.85069 h -0.81157 c -0.6482,0 -0.8582,-0.24854 -1.0432,-1.23472 -0.20124,-1.0727 -0.36536,-1.23472 -1.25071,-1.23472 -0.7694,0 -1.01907,0.16579 -1.01907,0.6767 0,1.14337 -0.39703,1.79274 -1.09608,1.79274 -0.40126,0 -0.66736,-0.24642 -0.66669,-0.61736 z m 3.31463,-5.46805 c -0.23416,-1.83509 -0.3736,-2.28315 -0.62213,-1.99908 -0.0707,0.0808 -0.23494,0.98043 -0.36492,1.99908 -0.21867,1.7136 -0.18177,1.85208 0.49352,1.85208 0.67529,0 0.71219,-0.13848 0.49353,-1.85208 z m -118.53931,5.11527 c 0.17205,-0.58255 1.98188,-10.84493 1.98188,-11.23797 0,-0.1011 0.51594,-0.13407 1.14653,-0.0733 l 1.14653,0.11055 0.95498,5.29167 c 1.1917,6.60332 1.18995,6.52638 0.14844,6.52638 -0.70354,0 -0.8728,-0.2248 -1.0625,-1.41111 -0.194,-1.21321 -0.3503,-1.41111 -1.1145,-1.41111 -0.90178,0 -0.99478,0.12544 -1.37312,1.85209 -0.1641,0.74892 -0.41757,0.97013 -1.11157,0.97013 -0.69046,0 -0.85671,-0.1432 -0.71667,-0.61736 z m 3.71962,-4.58611 c -0.0144,-0.53357 -0.1427,-1.68451 -0.28516,-2.55764 l -0.25901,-1.5875 -0.26289,1.5875 c -0.14459,0.87313 -0.34638,2.02407 -0.44842,2.55764 -0.1543,0.80679 -0.062,0.97014 0.54804,0.97014 0.57143,0 0.72781,-0.21445 0.70744,-0.97014 z m 87.86783,-6.72354 c 0,-0.64314 0.96913,-1.54677 1.53226,-1.42871 0.55572,0.1165 0.55928,0.18963 0.0449,0.92031 -0.53739,0.76333 -1.57713,1.09849 -1.57713,0.5084 z m -91.01668,-10.69348 v -6.03963 l 2.16914,0.1569 c 1.71959,0.12439 2.30448,0.32405 2.82222,0.96343 0.81168,1.00238 0.84911,3.11558 0.0836,4.72083 -0.52459,1.10008 -0.52412,1.35018 0.006,3.17388 0.31654,1.08884 0.66915,2.22372 0.7836,2.52196 0.15785,0.41137 -0.0401,0.54225 -0.82,0.54225 -0.97666,0 -1.0601,-0.12348 -1.66856,-2.46945 -0.40253,-1.55196 -0.821,-2.46944 -1.12634,-2.46944 -0.36634,0 -0.48584,0.60743 -0.48584,2.46944 0,2.39889 -0.0252,2.46945 -0.88195,2.46945 h -0.88194 v -6.03962 z m 3.45722,-1.08649 c 0.9568,-0.9568 0.36937,-3.10445 -0.84913,-3.10445 -0.77786,0 -0.8442,0.13863 -0.8442,1.76389 0,1.46338 0.10819,1.76389 0.635,1.76389 0.34925,0 0.8255,-0.1905 1.05833,-0.42333 z m 82.0914,6.30043 c -2.34302,-0.77516 -3.57056,-1.55191 -4.89162,-3.09527 -1.88736,-2.20495 -2.51671,-4.40229 -2.51671,-8.78689 0,-3.48892 0.0702,-3.85453 1.16777,-6.08367 1.25886,-2.55666 2.43911,-3.6665 5.20165,-4.89132 2.06645,-0.91621 6.72742,-1.03414 9.32919,-0.23605 l 1.5875,0.48696 0.1082,1.8836 c 0.0972,1.69257 0.0436,1.85883 -0.52837,1.63932 -1.62128,-0.62214 -4.28672,-0.97293 -6.02751,-0.79327 -3.77341,0.38945 -5.7426,2.77824 -6.00082,7.27946 -0.24956,4.35012 0.98648,7.34637 3.54886,8.60277 1.61123,0.79002 5.15412,0.84056 7.29192,0.10403 1.71667,-0.59144 1.89793,-0.40501 1.71942,1.76849 -0.10148,1.23554 -0.24085,1.4045 -1.52281,1.84601 -2.00298,0.68983 -6.74802,0.84442 -8.46667,0.27583 z m -72.49584,-11.69793 V 114.8305 h 6.87917 c 3.78354,0 6.87916,0.0716 6.87916,0.15903 0,0.0875 -0.1719,0.96058 -0.382,1.94027 l -0.38202,1.78126 h -4.2041 -4.2041 v 2.82222 2.82222 h 4.23334 4.23333 v 1.94028 1.94028 h -4.23333 -4.23334 v 5.11527 5.11528 h -2.29305 -2.29306 z m 17.63889,0 V 114.8305 h 6.91843 6.91843 l -0.23446,1.32292 c -0.48396,2.7307 -0.15871,2.55764 -4.80673,2.55764 h -4.20956 v 2.82222 2.82222 h 4.23334 4.23333 v 1.94028 1.94028 h -4.24657 -4.24657 l 0.10143,3.26319 0.10143,3.2632 4.49792,0.0987 4.49791,0.0987 v 1.75335 1.75335 h -6.87916 -6.87917 z m 18.34445,0 V 114.8305 l 4.14514,0.006 c 8.37164,0.0111 11.37708,1.78003 11.37708,6.69616 0,2.19669 -0.73914,3.59867 -2.35648,4.46966 -1.32935,0.7159 -1.45547,1.03816 -0.52223,1.33436 0.8735,0.27723 1.21308,1.00041 3.03842,6.4706 l 1.56459,4.68879 -2.68662,-0.10268 -2.68661,-0.10267 -1.30633,-4.14393 c -0.71848,-2.27916 -1.50441,-4.38259 -1.74651,-4.6743 -0.29186,-0.35166 -1.0794,-0.53038 -2.33726,-0.53038 h -1.89708 v 4.7625 4.7625 h -2.29306 -2.29305 z m 9.00941,-2.09961 c 2.10093,-0.87782 2.52863,-3.17357 0.8955,-4.8067 -0.91349,-0.91349 -1.2759,-1.03119 -3.175,-1.03119 h -2.1438 v 3.175 3.175 h 1.59883 c 0.87935,0 2.15037,-0.23045 2.82447,-0.51211 z m 11.18236,2.1878 0.093,-11.72986 2.38125,-0.10431 2.38125,-0.10432 v 11.83418 11.83417 h -2.4742 -2.4742 z m 27.43323,11.57471 c 0,-0.10234 1.76542,-4.99086 3.92316,-10.86338 2.15774,-5.87251 4.07827,-11.11386 4.26785,-11.64744 0.33856,-0.95291 0.39676,-0.97014 3.27794,-0.97014 h 2.93326 l 0.89737,2.38125 c 2.58899,6.87015 7.63098,20.7419 7.63098,20.99471 0,0.16009 -1.12937,0.24442 -2.50972,0.18741 l -2.50971,-0.10365 -0.95613,-2.64583 -0.95612,-2.64583 h -4.51072 -4.51072 l -0.95614,2.64583 -0.95614,2.64583 -2.53258,0.10365 c -1.39292,0.057 -2.53258,0.0199 -2.53258,-0.0824 z m 13.54878,-12.10388 c -0.48592,-1.30968 -1.14275,-3.07525 -1.45962,-3.92347 l -0.57613,-1.54223 -1.1748,3.08583 c -1.96343,5.15731 -2.0674,4.76112 1.24939,4.76112 h 2.84465 z m -109.50434,-4.32152 c -0.64284,-0.64284 -0.70556,-1.17593 -0.70556,-5.99723 v -5.29166 h 0.88195 0.88194 v 5.12634 c 0,4.43166 0.0786,5.15653 0.58018,5.34899 1.19377,0.45809 1.53649,-0.83121 1.53649,-5.78026 v -4.69507 h 0.90736 0.90736 l -0.11361,5.25574 c -0.0989,4.57594 -0.20054,5.35165 -0.78565,5.99722 -0.89822,0.99104 -3.11587,1.01052 -4.09046,0.0359 z m 34.29689,-9.26042 c 0.28126,-0.43656 0.9496,-1.54781 1.48521,-2.46945 l 0.97383,-1.67569 h 2.14915 2.14914 l -1.03108,1.14653 c -3.37688,3.75497 -3.42477,3.79236 -4.85753,3.79236 -1.34754,0 -1.36803,-0.0187 -0.86872,-0.79375 z m -33.94412,-11.72987 v -5.11528 h -0.88194 c -0.70556,0 -0.88194,-0.17639 -0.88194,-0.88195 0,-0.86724 0.047,-0.88194 2.82222,-0.88194 2.77518,0 2.82222,0.0147 2.82222,0.88194 0,0.74476 -0.16463,0.88195 -1.05833,0.88195 h -1.05834 v 5.11528 5.11529 h -0.88194 -0.88195 z m 11.64167,-9.72681 V 79.50188 l 5.20347,0.11361 c 5.8974,0.12876 7.13748,0.5234 9.04311,2.87788 0.83603,1.03293 1.08616,1.73399 1.20503,3.37737 0.36946,5.10778 -2.18648,7.70385 -7.93806,8.06268 l -2.92744,0.18263 v 4.36 4.36 h -2.29305 -2.29306 z m 7.9375,-1.02392 c 1.99006,-0.46109 2.70354,-1.47242 2.57402,-3.64856 -0.13363,-2.24528 -1.15892,-3.10809 -3.9705,-3.34124 l -1.95491,-0.16212 v 3.74785 3.74785 l 0.97014,-0.008 c 0.53358,-0.005 1.60514,-0.15554 2.38125,-0.33536 z m 11.1125,1.04934 V 79.55271 h 6.9072 6.9072 l -0.23076,1.14653 c -0.51342,2.55097 -0.17115,2.38125 -4.80223,2.38125 h -4.22383 l 0.10246,2.91042 0.10246,2.91041 4.14514,0.0994 4.14514,0.0994 v 1.7527 1.75269 h -4.23333 -4.23333 v 3.35139 3.35139 h 4.58611 4.58611 v 1.76389 1.76389 h -6.87917 -6.87917 z m 18.34445,0 V 79.55271 l 4.8507,0.002 c 5.42258,0.002 6.96539,0.30222 8.59187,1.67081 1.39611,1.17475 2.07965,2.77207 2.07965,4.8598 0,2.14988 -0.73859,3.46636 -2.55578,4.55548 -0.82564,0.49484 -1.23487,0.90121 -0.9094,0.90305 1.05959,0.006 2.04261,1.79911 3.47227,6.33375 0.77221,2.4492 1.40402,4.56687 1.40402,4.70577 0,0.13891 -1.15264,0.25256 -2.56143,0.25256 h -2.56143 l -1.20507,-3.91223 c -1.54472,-5.01489 -2.00074,-5.61278 -4.281,-5.61278 h -1.73829 v 4.76251 4.7625 h -2.29305 -2.29306 z m 9.17222,-2.22039 c 1.25291,-0.63373 1.9183,-2.17861 1.53063,-3.55374 -0.3962,-1.40535 -2.16774,-2.33847 -4.44104,-2.33921 l -1.6757,-5.5e-4 v 3.175 3.175 l 1.85209,-0.005 c 1.01864,-0.003 2.24895,-0.20594 2.73402,-0.45129 z m 10.93612,2.22039 V 79.55271 h 2.46944 2.46944 v 11.64167 11.64167 h -2.46944 -2.46944 z m -70.20279,-7.76111 v -5.99723 h 0.88195 0.88194 v 5.11528 5.11528 h 1.5875 c 1.45815,0 1.5875,0.0719 1.5875,0.88194 0,0.85675 -0.0706,0.88195 -2.46944,0.88195 h -2.46945 z m 0.70556,-11.28889 c -0.64284,-0.64284 -0.70556,-1.17593 -0.70556,-5.99722 v -5.29167 h 0.87226 0.87226 l 0.0979,5.02708 c 0.0938,4.8169 0.12914,5.03155 0.84565,5.13379 1.02172,0.1458 1.1819,-0.64174 1.18769,-5.83934 l 0.005,-4.32153 h 0.91431 0.91429 l -0.12054,5.32329 c -0.11546,5.09829 -0.15576,5.35178 -0.95339,5.99722 -1.0979,0.88843 -3.02513,0.87291 -3.92967,-0.0316 z m 12.34722,-16.404166 V 43.922158 h 2.29306 2.29305 v 9.877778 9.877774 h 4.7625 4.7625 v 1.94028 1.94028 h -7.05555 -7.05556 z m 14.81667,11.557256 c 0,-0.25847 5.24506,-14.69471 7.62768,-20.994062 l 0.90067,-2.38125 h 2.92497 c 2.86193,0 2.93331,0.02092 3.31172,0.970138 1.08348,2.717836 8.16552,22.146594 8.16552,22.401164 0,0.16265 -1.12938,0.24907 -2.50972,0.19207 l -2.50971,-0.10365 -0.95613,-2.64584 -0.95613,-2.64583 h -4.53359 -4.5336 l -0.95613,2.64583 -0.95612,2.64584 -2.50972,0.10365 c -1.38034,0.057 -2.50971,-0.0276 -2.50971,-0.18806 z m 13.54878,-11.998229 c -0.48592,-1.309687 -1.14635,-3.08465 -1.4676,-3.944366 l -0.58411,-1.563112 -0.4834,1.184691 c -0.26588,0.651584 -0.93663,2.426547 -1.49056,3.944366 l -1.00716,2.759672 h 2.95816 2.95816 z m -40.00712,0.725319 c -1.21911,-0.435699 -1.41111,-1.251578 -1.41111,-5.996217 0,-4.224705 0.0707,-4.76576 0.70556,-5.40063 0.43677,-0.436774 1.17592,-0.705555 1.94027,-0.705555 0.76436,0 1.50351,0.268781 1.94028,0.705555 0.96668,0.966675 0.98617,3.175 0.0281,3.175 -0.46596,0 -0.75011,-0.330468 -0.90997,-1.058333 -0.29343,-1.335945 -1.73426,-1.520049 -2.07071,-0.264583 -0.41865,1.562181 -0.23936,6.809242 0.2558,7.486421 0.64966,0.888456 1.51761,0.481739 1.80967,-0.848001 0.16463,-0.749557 0.44593,-1.08217 0.91521,-1.08217 0.55318,0 0.67753,0.254293 0.67753,1.385506 0,2.078885 -1.85864,3.325623 -3.88056,2.603007 z"
       id="path233"
       inkscape:connector-curvature="0" />
    <path
       style="fill:#ffffff;stroke-width:0.23872335"
       d="M 10.658584,171.84889 V 286.6582 H 124.80821 v -51.22279 h -19.60875 l -0.45683,31.36917 h -74.2286 v -74.91932 h 40.759693 v -20.03637 z"
       id="path237"
       inkscape:connector-curvature="0"
       sodipodi:nodetypes="ccccccccccc" />
    <path
       style="fill:#ffffff;stroke-width:0.19598767"
       d="m -171.97916,317.2679 v -39.98148 h 17.34491 17.3449 v 1.07794 1.07793 h -16.36496 -16.36497 v 37.9236 37.92363 h 37.62963 37.62963 v -14.79707 -14.79707 h 1.07793 1.07793 v 15.777 15.77701 h -39.6875 -39.6875 z m 12.07494,30.86176 c -0.43629,-0.43629 -0.56866,-1.42543 -0.47557,-3.55379 0.0745,-1.70296 0.12716,-1.91704 0.55751,-2.26552 0.35349,-0.28624 0.65203,-0.35617 1.16511,-0.2729 0.82923,0.13456 1.1811,0.56126 1.1811,1.43227 0,0.50343 -0.0822,0.6485 -0.36748,0.6485 -0.2534,0 -0.40484,-0.18683 -0.48785,-0.60187 -0.0973,-0.48638 -0.20539,-0.5898 -0.56347,-0.53897 -0.42428,0.0602 -0.44519,0.15024 -0.49264,2.12078 -0.0537,2.22907 0.10291,2.78787 0.68093,2.43008 0.19171,-0.11867 0.37647,-0.4494 0.41058,-0.73496 0.0432,-0.36121 0.17732,-0.51919 0.44097,-0.51919 0.30891,0 0.37896,0.13928 0.37896,0.75357 0,0.48115 -0.12957,0.87083 -0.35841,1.07793 -0.45018,0.40741 -1.67219,0.42162 -2.06974,0.0241 z m 4.66339,-0.11188 c -0.29963,-0.33076 -0.38701,-0.783 -0.44251,-2.29013 -0.083,-2.25542 0.17567,-3.31174 0.87638,-3.57816 0.78284,-0.29763 1.23371,-0.22189 1.74952,0.29393 0.45751,0.45751 0.48106,0.59665 0.48106,2.84181 0,2.09945 -0.0434,2.40415 -0.39197,2.75275 -0.54158,0.54157 -1.77353,0.53063 -2.27248,-0.0202 z m 1.58652,-2.72632 v -2.25118 h -0.48997 c -0.48748,0 -0.49026,0.0103 -0.54605,2.02926 -0.058,2.09897 0.10042,2.65327 0.72401,2.53318 0.26375,-0.0508 0.31201,-0.40824 0.31201,-2.31126 z m 3.03781,0.003 v -3.1358 h 0.54461 c 0.5171,0 0.56909,0.0866 1.02894,1.71489 l 0.48432,1.71489 0.0566,-1.71489 c 0.0553,-1.67598 0.0676,-1.71489 0.53896,-1.71489 h 0.48234 v 3.1358 3.13581 h -0.47811 c -0.43141,0 -0.52808,-0.16751 -0.98976,-1.71489 -0.74278,-2.48957 -0.78043,-2.50272 -0.84184,-0.29399 -0.0514,1.84735 -0.0868,2.00888 -0.44097,2.00888 -0.36679,0 -0.38512,-0.14927 -0.38512,-3.13581 z m 5.68364,0.39198 v -2.74383 h -0.48997 c -0.35931,0 -0.48997,-0.10452 -0.48997,-0.39197 0,-0.35713 0.13066,-0.39198 1.46991,-0.39198 1.33925,0 1.46991,0.0348 1.46991,0.39198 0,0.28745 -0.13066,0.39197 -0.48997,0.39197 h -0.48997 v 2.74383 2.74383 h -0.48997 -0.48997 z m 3.72377,-0.39198 v -3.1358 h 1.27391 c 1.1307,0 1.27392,0.0428 1.27392,0.3807 0,0.30779 -0.15956,0.39227 -0.83294,0.44098 -0.8289,0.06 -0.83324,0.0643 -0.89322,0.89321 l -0.0603,0.83295 h 0.79521 c 0.71758,0 0.79523,0.0478 0.79523,0.48997 0,0.44207 -0.0777,0.48997 -0.79469,0.48997 h -0.79469 l 0.0597,0.93094 0.0597,0.93095 0.83295,0.0603 c 0.67338,0.0487 0.83294,0.13319 0.83294,0.44097 0,0.3379 -0.14322,0.38071 -1.27392,0.38071 h -1.27391 z m 4.50771,0 v -3.1358 h 0.58423 c 0.44472,0 0.60878,0.10529 0.6871,0.44098 0.0566,0.24253 0.22241,0.97014 0.36852,1.61689 l 0.26565,1.17593 0.20473,-0.78395 c 0.1126,-0.43118 0.28197,-1.13673 0.37639,-1.5679 0.15251,-0.69649 0.24203,-0.79081 0.80239,-0.84536 l 0.63074,-0.0614 v 3.14822 c 0,3.01756 -0.0163,3.14822 -0.39197,3.14822 -0.36748,0 -0.39198,-0.13066 -0.39198,-2.09053 0,-1.1498 -0.0558,-2.03469 -0.12411,-1.96643 -0.0683,0.0683 -0.26981,0.76585 -0.44787,1.55021 -0.46424,2.04496 -0.83224,2.02289 -1.34076,-0.0804 l -0.39327,-1.62661 -0.0229,2.10687 c -0.0214,1.96856 -0.0487,2.10687 -0.4149,2.10687 -0.37564,0 -0.39197,-0.13066 -0.39197,-3.13581 z m 6.07562,0 v -3.1358 h 1.0637 c 0.91571,0 1.12023,0.0718 1.46991,0.5164 0.45235,0.57507 0.52673,1.55248 0.17661,2.3209 -0.21422,0.47018 -0.43794,0.58448 -1.43631,0.73387 -0.34046,0.051 -0.39959,0.23221 -0.44992,1.37955 -0.0509,1.16016 -0.10456,1.32089 -0.44097,1.32089 -0.36408,0 -0.38302,-0.15509 -0.38302,-3.13581 z m 1.84091,-0.70198 c 0.33812,-0.88114 -0.11708,-1.82685 -0.76049,-1.57995 -0.20429,0.0784 -0.29647,0.38992 -0.29647,1.00187 0,0.80605 0.0433,0.88809 0.469,0.88809 0.25795,0 0.52253,-0.13951 0.58796,-0.31001 z m 3.05764,3.30185 c -0.38692,-0.49187 -0.41628,-0.72495 -0.3572,-2.83535 0.0721,-2.5747 0.19086,-2.83417 1.38645,-3.02819 0.58581,-0.0951 0.79343,-0.0283 1.21135,0.38964 0.48131,0.48131 0.50436,0.60392 0.50436,2.68202 0,2.83021 -0.23566,3.31913 -1.60267,3.32482 -0.55389,0.002 -0.81832,-0.12107 -1.14229,-0.53294 z m 1.66703,-2.60255 v -2.25117 h -0.48997 c -0.48748,0 -0.49025,0.0103 -0.54604,2.02925 -0.058,2.09898 0.10041,2.65327 0.72401,2.53318 0.26375,-0.0508 0.312,-0.40824 0.312,-2.31126 z m 3.03781,0.003 v -3.13581 h 1.07793 c 0.81662,0 1.17296,0.095 1.46991,0.39198 0.48722,0.48722 0.5251,1.77202 0.0747,2.53443 -0.29251,0.49519 -0.29225,0.623 0.003,1.63988 0.17633,0.60655 0.37262,1.23839 0.4362,1.40407 0.086,0.2241 -0.0168,0.30125 -0.40149,0.30125 -0.2844,0 -0.55433,-0.11025 -0.59985,-0.24498 -0.0455,-0.13474 -0.22539,-0.7521 -0.39973,-1.37192 -0.17433,-0.61981 -0.39891,-1.12693 -0.49905,-1.12693 -0.10015,0 -0.18208,0.61736 -0.18208,1.37192 0,1.33271 -0.014,1.37191 -0.48997,1.37191 h -0.48997 v -3.1358 z m 1.64987,-0.51094 c 0.20715,-0.0795 0.31001,-0.36516 0.31001,-0.86098 0,-0.69809 -0.23009,-0.97994 -0.79999,-0.97994 -0.099,0 -0.17995,0.44098 -0.17995,0.97994 0,0.97762 0.0841,1.08576 0.66993,0.86098 z m 2.91701,3.20577 c 0.0559,-0.24254 0.30373,-1.65365 0.5507,-3.1358 l 0.44906,-2.69484 h 0.64647 c 0.35555,0 0.64731,0.0661 0.64835,0.147 0.001,0.0808 0.22067,1.4258 0.48808,2.98881 0.26741,1.563 0.48705,2.90797 0.48808,2.98881 10e-4,0.0808 -0.21301,0.14699 -0.47566,0.14699 -0.39553,0 -0.4881,-0.10941 -0.53897,-0.63696 -0.0482,-0.50033 -0.16176,-0.65115 -0.52922,-0.7031 -0.52145,-0.0737 -0.7986,0.23654 -0.80311,0.89909 -0.002,0.34383 -0.11562,0.44097 -0.51422,0.44097 -0.42961,0 -0.49499,-0.0704 -0.40956,-0.44097 z m 1.88133,-2.84183 c -0.0843,-0.51201 -0.16893,-1.06323 -0.18811,-1.22492 -0.0503,-0.42364 -0.32983,0.76494 -0.35728,1.51891 -0.0181,0.49641 0.0564,0.63696 0.33771,0.63696 0.32141,0 0.34414,-0.1019 0.20768,-0.93095 z m 3.15518,0.147 v -3.13581 h 0.54462 c 0.5171,0 0.56908,0.0866 1.02893,1.7149 l 0.48433,1.71489 0.0566,-1.71489 c 0.0553,-1.67599 0.0676,-1.7149 0.53897,-1.7149 h 0.48234 v 3.13581 3.1358 h -0.48367 c -0.43861,0 -0.53109,-0.15977 -0.99261,-1.71489 -0.7388,-2.48942 -0.77207,-2.50116 -0.83343,-0.29398 -0.0514,1.84734 -0.0868,2.00887 -0.44097,2.00887 -0.36679,0 -0.38513,-0.14927 -0.38513,-3.1358 z m 5.09569,0 v -3.13581 h 1.37191 c 1.24125,0 1.37191,0.0373 1.37191,0.39198 0,0.33391 -0.13066,0.39197 -0.88194,0.39197 h -0.88194 v 0.88195 c 0,0.87728 0.004,0.88194 0.68595,0.88194 0.60103,0 0.68596,0.0607 0.68596,0.48997 0,0.42931 -0.0849,0.48997 -0.68596,0.48997 h -0.68595 v 0.97994 0.97994 h 0.88194 c 0.75128,0 0.88194,0.0581 0.88194,0.39198 0,0.35464 -0.13066,0.39197 -1.37191,0.39197 h -1.37191 z m 4.31235,2.79282 c 5.5e-4,-0.3646 0.463,-3.18567 0.803,-4.89969 0.19019,-0.95878 0.24299,-1.02894 0.77444,-1.02894 0.66801,0 0.61168,-0.16244 1.24027,3.57678 l 0.45302,2.69483 h -0.45087 c -0.36011,0 -0.47678,-0.13808 -0.57956,-0.68596 -0.1118,-0.59594 -0.20298,-0.68595 -0.69484,-0.68595 -0.42744,0 -0.56615,0.0921 -0.56615,0.37594 0,0.63521 -0.22057,0.99597 -0.60893,0.99597 -0.22292,0 -0.37076,-0.1369 -0.37038,-0.34298 z m 1.84146,-3.0378 c -0.13009,-1.0195 -0.20756,-1.26842 -0.34563,-1.1106 -0.0393,0.0449 -0.13052,0.54468 -0.20273,1.1106 -0.12149,0.952 -0.10099,1.02893 0.27417,1.02893 0.37517,0 0.39567,-0.0769 0.27419,-1.02893 z m -65.85517,2.84181 c 0.0956,-0.32364 1.10105,-6.02496 1.10105,-6.24331 0,-0.0562 0.28663,-0.0745 0.63696,-0.0407 l 0.63696,0.0614 0.53054,2.93982 c 0.66206,3.66851 0.66109,3.62576 0.0825,3.62576 -0.39086,0 -0.48489,-0.12489 -0.59028,-0.78395 -0.10778,-0.674 -0.19461,-0.78395 -0.61917,-0.78395 -0.50098,0 -0.55265,0.0697 -0.76284,1.02894 -0.0912,0.41607 -0.23198,0.53896 -0.61754,0.53896 -0.38359,0 -0.47595,-0.0796 -0.39815,-0.34297 z m 2.06646,-2.54784 c -0.008,-0.29642 -0.0793,-0.93584 -0.15843,-1.42091 l -0.14389,-0.88194 -0.14605,0.88194 c -0.0803,0.48507 -0.19243,1.12449 -0.24912,1.42091 -0.0857,0.44822 -0.0345,0.53897 0.30446,0.53897 0.31747,0 0.40434,-0.11914 0.39303,-0.53897 z m 48.81545,-3.7353 c 0,-0.3573 0.53841,-0.85931 0.85126,-0.79372 0.30873,0.0647 0.31071,0.10535 0.0249,0.51128 -0.29855,0.42407 -0.87618,0.61027 -0.87618,0.28244 z m -50.56481,-5.94082 v -3.35535 l 1.20507,0.0872 c 0.95533,0.0691 1.28027,0.18003 1.5679,0.53524 0.45094,0.55688 0.47173,1.73088 0.0465,2.62268 -0.29144,0.61116 -0.29118,0.7501 0.003,1.76327 0.17586,0.60491 0.37175,1.2354 0.43533,1.40109 0.0877,0.22854 -0.0223,0.30125 -0.45555,0.30125 -0.54259,0 -0.58895,-0.0686 -0.92698,-1.37192 -0.22363,-0.8622 -0.45611,-1.37191 -0.62574,-1.37191 -0.20353,0 -0.26991,0.33746 -0.26991,1.37191 0,1.33272 -0.014,1.37192 -0.48998,1.37192 h -0.48996 v -3.35534 z m 1.92067,-0.60361 c 0.53156,-0.53156 0.20521,-1.72469 -0.47174,-1.72469 -0.43214,0 -0.469,0.077 -0.469,0.97993 0,0.813 0.0601,0.97994 0.35278,0.97994 0.19403,0 0.45861,-0.10583 0.58796,-0.23518 z m 45.60633,3.50024 c -1.30168,-0.43065 -1.98364,-0.86217 -2.71756,-1.7196 -1.04854,-1.22496 -1.39818,-2.44571 -1.39818,-4.8816 0,-1.93829 0.039,-2.14141 0.64876,-3.37982 0.69937,-1.42036 1.35507,-2.03694 2.88981,-2.7174 1.14803,-0.509 3.73746,-0.57452 5.18288,-0.13114 l 0.88195,0.27054 0.0601,1.04644 c 0.054,0.94032 0.0242,1.03268 -0.29354,0.91073 -0.90071,-0.34563 -2.38151,-0.54051 -3.34862,-0.4407 -2.09634,0.21636 -3.19033,1.54347 -3.33379,4.04414 -0.13864,2.41674 0.54805,4.08132 1.97159,4.77932 0.89513,0.4389 2.8634,0.46698 4.05107,0.0578 0.9537,-0.32857 1.0544,-0.225 0.95523,0.9825 -0.0564,0.68641 -0.1338,0.78028 -0.846,1.02557 -1.11277,0.38323 -3.7489,0.46911 -4.70371,0.15323 z m -40.27546,-6.49885 v -6.56559 h 3.82176 c 2.10197,0 3.82176,0.0398 3.82176,0.0883 0,0.0486 -0.0955,0.53366 -0.21223,1.07793 l -0.21223,0.98959 h -2.33561 -2.33561 v 1.5679 1.5679 h 2.35185 2.35185 v 1.07793 1.07793 h -2.35185 -2.35185 v 2.84182 2.84182 h -1.27392 -1.27392 z m 9.79938,0 v -6.56559 h 3.84358 3.84357 l -0.13026,0.73496 c -0.26886,1.51705 -0.0882,1.42091 -2.6704,1.42091 h -2.33865 v 1.5679 1.5679 h 2.35186 2.35185 v 1.07793 1.07793 h -2.35921 -2.3592 l 0.0564,1.81289 0.0563,1.81289 2.49884,0.0548 2.49884,0.0548 v 0.97408 0.97408 h -3.82176 -3.82176 z m 10.19136,0 v -6.56559 l 2.30285,0.003 c 4.65092,0.006 6.32061,0.98891 6.32061,3.72009 0,1.22039 -0.41064,1.99926 -1.30916,2.48315 -0.73853,0.39772 -0.80859,0.57675 -0.29013,0.74131 0.48528,0.15401 0.67394,0.55578 1.68801,3.59478 l 0.86922,2.60488 -1.49257,-0.0571 -1.49256,-0.057 -0.72574,-2.30219 c -0.39915,-1.2662 -0.83578,-2.43477 -0.97028,-2.59683 -0.16215,-0.19537 -0.59967,-0.29466 -1.29848,-0.29466 h -1.05393 v 2.64584 2.64583 h -1.27392 -1.27392 z m 5.00523,-1.16645 c 1.16718,-0.48767 1.40479,-1.7631 0.4975,-2.67039 -0.5075,-0.50749 -0.70884,-0.57288 -1.76389,-0.57288 h -1.191 v 1.76389 1.76388 h 0.88824 c 0.48852,0 1.19465,-0.12802 1.56915,-0.2845 z m 6.21242,1.21544 0.0517,-6.51659 1.32291,-0.058 1.32292,-0.058 v 6.57454 6.57454 h -1.37456 -1.37455 z m 15.24068,6.4304 c 0,-0.0569 0.98079,-2.7727 2.17954,-6.03521 1.19874,-3.26251 2.2657,-6.17437 2.37102,-6.4708 0.18809,-0.5294 0.22043,-0.53897 1.82108,-0.53897 h 1.62959 l 0.49854,1.32292 c 1.43833,3.81675 4.23943,11.52327 4.23943,11.66373 0,0.0889 -0.62743,0.13578 -1.39429,0.10411 l -1.39428,-0.0576 -0.53118,-1.46991 -0.53118,-1.4699 h -2.50596 -2.50595 l -0.53119,1.4699 -0.53119,1.46991 -1.40699,0.0576 c -0.77384,0.0317 -1.40699,0.0111 -1.40699,-0.0458 z m 7.5271,-6.72438 c -0.26995,-0.72759 -0.63486,-1.70847 -0.8109,-2.17971 l -0.32007,-0.85679 -0.65267,1.71435 c -1.09079,2.86517 -1.14855,2.64507 0.69411,2.64507 h 1.58036 z m -60.83574,-2.40084 c -0.35713,-0.35714 -0.39197,-0.6533 -0.39197,-3.3318 v -2.93981 h 0.48997 0.48996 v 2.84797 c 0,2.46203 0.0437,2.86474 0.32233,2.97166 0.6632,0.2545 0.8536,-0.46179 0.8536,-3.21126 v -2.60837 h 0.50409 0.50409 l -0.0631,2.91986 c -0.0549,2.54218 -0.11141,2.97314 -0.43647,3.33179 -0.49901,0.55057 -1.73104,0.56139 -2.27248,0.0199 z m 19.05383,-5.14468 c 0.15626,-0.24254 0.52756,-0.8599 0.82512,-1.37192 l 0.54101,-0.93094 h 1.19398 1.19396 l -0.57282,0.63696 c -1.87604,2.0861 -1.90265,2.10687 -2.69863,2.10687 -0.74863,0 -0.76001,-0.0104 -0.48262,-0.44097 z m -18.85784,-6.5166 v -2.84182 h -0.48997 c -0.39198,0 -0.48997,-0.098 -0.48997,-0.48997 0,-0.4818 0.0261,-0.48997 1.5679,-0.48997 1.54177,0 1.5679,0.008 1.5679,0.48997 0,0.41375 -0.0915,0.48997 -0.58796,0.48997 h -0.58796 v 2.84182 2.84183 h -0.48997 -0.48997 z m 6.46759,-5.40378 v -6.48171 l 2.89082,0.0631 c 3.27633,0.0715 3.96526,0.29078 5.02395,1.59883 0.46446,0.57385 0.60342,0.96332 0.66946,1.87631 0.20525,2.83766 -1.21471,4.27992 -4.41003,4.47927 l -1.62636,0.10146 v 2.42222 2.42223 h -1.27392 -1.27392 z m 4.40972,-0.56885 c 1.10559,-0.25616 1.50197,-0.81801 1.43001,-2.02697 -0.0742,-1.24738 -0.64384,-1.72672 -2.20583,-1.85625 l -1.08606,-0.0901 v 2.08213 2.08214 l 0.53897,-0.004 c 0.29643,-0.003 0.89174,-0.0864 1.32291,-0.18631 z m 6.17361,0.58297 v -6.46804 h 3.83734 3.83733 l -0.1282,0.63696 c -0.28523,1.4172 -0.0951,1.32291 -2.6679,1.32291 h -2.34658 l 0.0569,1.6169 0.0569,1.6169 2.30285,0.0552 2.30286,0.0552 v 0.97373 0.97371 h -2.35185 -2.35185 v 1.86189 1.86188 h 2.54784 2.54784 v 0.97994 0.97994 h -3.82176 -3.82177 z m 10.19136,0 v -6.46804 l 2.69483,10e-4 c 3.01255,0.001 3.86967,0.1679 4.77327,0.92823 0.77561,0.65263 1.15536,1.54003 1.15536,2.69988 0,1.19438 -0.41033,1.92576 -1.41988,2.53083 -0.45869,0.27491 -0.68604,0.50067 -0.50522,0.50169 0.58866,0.003 1.13478,0.99951 1.92904,3.51875 0.429,1.36067 0.78001,2.53715 0.78001,2.61432 0,0.0772 -0.64036,0.14031 -1.42302,0.14031 h -1.42302 l -0.66948,-2.17346 c -0.85818,-2.78605 -1.11152,-3.11821 -2.37833,-3.11821 h -0.96572 v 2.64584 2.64583 h -1.27392 -1.27392 z m 5.09568,-1.23355 c 0.69606,-0.35207 1.06572,-1.21034 0.85035,-1.9743 -0.22011,-0.78075 -1.2043,-1.29915 -2.46725,-1.29956 l -0.93094,-3.1e-4 v 1.76389 1.76389 l 1.02894,-0.003 c 0.56591,-0.002 1.24941,-0.11441 1.5189,-0.25071 z m 6.07562,1.23355 v -6.46804 h 1.37191 1.37191 v 6.46759 6.4676 h -1.37191 -1.37191 z m -39.00154,-4.31173 v -3.33179 h 0.48997 0.48996 v 2.84182 2.84182 h 0.88195 c 0.81008,0 0.88194,0.04 0.88194,0.48997 0,0.47597 -0.0392,0.48997 -1.37191,0.48997 h -1.37191 z m 0.39197,-6.2716 c -0.35713,-0.35714 -0.39197,-0.6533 -0.39197,-3.33179 v -2.93982 h 0.48458 0.48459 l 0.0544,2.79282 c 0.0521,2.67606 0.0717,2.79531 0.46981,2.85211 0.56762,0.081 0.65661,-0.35652 0.65983,-3.24408 l 0.003,-2.40085 h 0.50795 0.50794 l -0.067,2.95739 c -0.0641,2.83238 -0.0865,2.97321 -0.52967,3.33178 -0.60994,0.49358 -1.68062,0.48495 -2.18315,-0.0175 z m 6.85957,-9.11342 v -6.56559 h 1.27392 1.27392 v 5.48765 5.48765 h 2.64583 2.64584 v 1.07794 1.07793 h -3.91975 -3.91976 z m 8.23148,6.42069 c 0,-0.14359 2.91393,-8.16373 4.2376,-11.66337 l 0.50038,-1.32291 h 1.62498 c 1.58996,0 1.62962,0.0116 1.83984,0.53896 0.60194,1.50991 4.5364,12.30366 4.5364,12.44509 0,0.0904 -0.62744,0.13837 -1.39429,0.10671 l -1.39428,-0.0576 -0.53118,-1.46991 -0.53119,-1.4699 h -2.51866 -2.51866 l -0.53119,1.4699 -0.53117,1.46991 -1.39429,0.0576 c -0.76686,0.0317 -1.39429,-0.0153 -1.39429,-0.10448 z m 7.5271,-6.66568 c -0.26995,-0.7276 -0.63686,-1.7137 -0.81533,-2.19131 l -0.32451,-0.8684 -0.26855,0.65816 c -0.14771,0.36199 -0.52035,1.34808 -0.82809,2.19131 l -0.55953,1.53316 h 1.64342 1.64342 z m -22.22617,0.40295 c -0.67729,-0.24205 -0.78395,-0.69532 -0.78395,-3.33123 0,-2.34706 0.0393,-2.64764 0.39197,-3.00035 0.24265,-0.24265 0.65329,-0.39197 1.07793,-0.39197 0.42465,0 0.83528,0.14932 1.07793,0.39197 0.53705,0.53704 0.54788,1.76389 0.0156,1.76389 -0.25887,0 -0.41673,-0.18359 -0.50554,-0.58796 -0.16302,-0.74219 -0.96348,-0.84448 -1.1504,-0.14699 -0.23258,0.86788 -0.13298,3.78291 0.14211,4.15912 0.36093,0.49359 0.84312,0.26763 1.00538,-0.47111 0.0915,-0.41642 0.24773,-0.60121 0.50845,-0.60121 0.30732,0 0.3764,0.14128 0.3764,0.76973 0,1.15493 -1.03258,1.84757 -2.15587,1.44611 z"
       id="path233-3"
       inkscape:connector-curvature="0"
       inkscape:export-filename="logo.png"
       inkscape:export-xdpi="96"
       inkscape:export-ydpi="96" />
  </g>
</svg>
