<?xml version="1.0" encoding="UTF-8" standalone="no"?>
<!-- Created with Inkscape (http://www.inkscape.org/) -->

<svg
   xmlns:dc="http://purl.org/dc/elements/1.1/"
   xmlns:cc="http://creativecommons.org/ns#"
   xmlns:rdf="http://www.w3.org/1999/02/22-rdf-syntax-ns#"
   xmlns:svg="http://www.w3.org/2000/svg"
   xmlns="http://www.w3.org/2000/svg"
   xmlns:sodipodi="http://sodipodi.sourceforge.net/DTD/sodipodi-0.dtd"
   xmlns:inkscape="http://www.inkscape.org/namespaces/inkscape"
   width="512"
   height="512"
   viewBox="0 0 135.46666 135.46667"
   version="1.1"
   id="svg8"
   sodipodi:docname="logo.svg"
   inkscape:version="0.92.4 (5da689c313, 2019-01-14)"
   inkscape:export-filename="favicon.png"
   inkscape:export-xdpi="96"
   inkscape:export-ydpi="96">
  <defs
     id="defs2" />
  <sodipodi:namedview
     id="base"
     pagecolor="#ffffff"
     bordercolor="#666666"
     borderopacity="1.0"
     inkscape:pageopacity="0.0"
     inkscape:pageshadow="2"
     inkscape:zoom="0.7"
     inkscape:cx="-427.2182"
     inkscape:cy="710.77688"
     inkscape:document-units="mm"
     inkscape:current-layer="layer1"
     showgrid="false"
     units="px"
     inkscape:window-width="1918"
     inkscape:window-height="1059"
     inkscape:window-x="0"
     inkscape:window-y="19"
     inkscape:window-maximized="0" />
  <metadata
     id="metadata5">
    <rdf:RDF>
      <cc:Work
         rdf:about="">
        <dc:format>image/svg+xml</dc:format>
        <dc:type
           rdf:resource="http://purl.org/dc/dcmitype/StillImage" />
        <dc:title />
      </cc:Work>
    </rdf:RDF>
  </metadata>
  <g
     inkscape:label="Capa 1"
     inkscape:groupmode="layer"
     id="layer1"
     transform="translate(0,-161.53332)">
    <rect
       style="fill:#000000;stroke-width:0.26458332"
       id="rect33"
       width="216.20239"
       height="202.21725"
       x="-241.1488"
       y="213.46725" />
    <rect
       id="rect3944"
       width="135.46666"
       height="135.46666"
       x="3.5603841e-06"
       y="161.53333"
       style="stroke-width:0.40610987;fill:#000000" />
    <path
       style="fill:#000000;stroke-width:0.19598766"
       d="M -170.57841,133.13294 V 93.151466 h 17.34491 17.3449 v 1.077932 1.077933 h -16.36496 -16.36497 v 37.923609 37.92362 h 37.62963 37.629633 v -14.79707 -14.79707 h 1.07793 1.07793 v 15.77701 15.777 h -39.687503 -39.6875 z m 12.07494,30.86176 c -0.43629,-0.43629 -0.56866,-1.42544 -0.47557,-3.5538 0.0745,-1.70296 0.12716,-1.91703 0.55751,-2.26551 0.35349,-0.28624 0.65203,-0.35616 1.16511,-0.2729 0.82923,0.13456 1.1811,0.56126 1.1811,1.43227 0,0.50343 -0.0822,0.6485 -0.36748,0.6485 -0.25341,0 -0.40484,-0.18683 -0.48785,-0.60187 -0.0973,-0.48639 -0.20539,-0.5898 -0.56347,-0.53897 -0.42428,0.0602 -0.44519,0.15024 -0.49264,2.12078 -0.0537,2.22908 0.1029,2.78788 0.68093,2.43008 0.19171,-0.11867 0.37647,-0.4494 0.41057,-0.73496 0.0432,-0.36121 0.17733,-0.51919 0.44098,-0.51919 0.30891,0 0.37896,0.13928 0.37896,0.75357 0,0.48115 -0.12957,0.87083 -0.35841,1.07793 -0.45018,0.40741 -1.67219,0.42162 -2.06974,0.0241 z m 4.66339,-0.11187 c -0.29963,-0.33078 -0.38701,-0.78301 -0.44251,-2.29014 -0.0831,-2.25543 0.17567,-3.31175 0.87638,-3.57816 0.78284,-0.29763 1.2337,-0.22189 1.74952,0.29393 0.45751,0.4575 0.48106,0.59665 0.48106,2.84182 0,2.09944 -0.0434,2.40415 -0.39198,2.75273 -0.54157,0.54158 -1.77352,0.53063 -2.27247,-0.0202 z m 1.58652,-2.72633 v -2.25117 h -0.48997 c -0.48748,0 -0.49026,0.0103 -0.54605,2.02925 -0.058,2.09897 0.10042,2.65327 0.72401,2.53318 0.26375,-0.0508 0.31201,-0.40824 0.31201,-2.31126 z m 3.0378,0.003 v -3.13581 h 0.54462 c 0.5171,0 0.56908,0.0866 1.02893,1.71489 l 0.48433,1.71489 0.0566,-1.71489 c 0.0553,-1.67598 0.0676,-1.71489 0.53897,-1.71489 h 0.48234 v 3.13581 3.1358 h -0.47811 c -0.43141,0 -0.52808,-0.1675 -0.98976,-1.71489 -0.74278,-2.48956 -0.78044,-2.50271 -0.84184,-0.29399 -0.0514,1.84735 -0.0868,2.00888 -0.44097,2.00888 -0.36679,0 -0.38513,-0.14927 -0.38513,-3.1358 z m 5.68365,0.39197 v -2.74383 h -0.48997 c -0.35931,0 -0.48997,-0.10452 -0.48997,-0.39197 0,-0.35714 0.13066,-0.39198 1.4699,-0.39198 1.33925,0 1.46992,0.0348 1.46992,0.39198 0,0.28745 -0.13067,0.39197 -0.48998,0.39197 h -0.48996 v 2.74383 2.74383 h -0.48998 -0.48996 z m 3.72376,-0.39197 v -3.13581 h 1.27392 c 1.1307,0 1.27392,0.0428 1.27392,0.38071 0,0.30778 -0.15956,0.39225 -0.83295,0.44097 -0.82889,0.06 -0.83324,0.0643 -0.89321,0.89321 l -0.0603,0.83295 h 0.79521 c 0.71758,0 0.79522,0.0478 0.79522,0.48997 0,0.44207 -0.0777,0.48997 -0.79468,0.48997 h -0.79469 l 0.0597,0.93094 0.0597,0.93094 0.83294,0.0603 c 0.67339,0.0487 0.83295,0.13319 0.83295,0.44097 0,0.33791 -0.14322,0.38071 -1.27392,0.38071 h -1.27392 z m 4.50772,0 v -3.13581 h 0.58423 c 0.44473,0 0.60879,0.10529 0.6871,0.44097 0.0566,0.24254 0.22241,0.97014 0.36852,1.6169 l 0.26565,1.17593 0.20473,-0.78395 c 0.1126,-0.43118 0.28198,-1.13673 0.37639,-1.56791 0.15251,-0.69648 0.24203,-0.7908 0.8024,-0.84536 l 0.63073,-0.0614 v 3.14822 c 0,3.01756 -0.0163,3.14822 -0.39197,3.14822 -0.36748,0 -0.39198,-0.13066 -0.39198,-2.09054 0,-1.14979 -0.0558,-2.03468 -0.12411,-1.96642 -0.0683,0.0683 -0.26981,0.76586 -0.44787,1.55021 -0.46424,2.04496 -0.83224,2.02289 -1.34076,-0.0804 l -0.39326,-1.62661 -0.023,2.10687 c -0.0214,1.96857 -0.0487,2.10687 -0.4149,2.10687 -0.37564,0 -0.39197,-0.13066 -0.39197,-3.1358 z m 6.07562,0 v -3.13581 h 1.0637 c 0.91571,0 1.12023,0.0718 1.46991,0.5164 0.45235,0.57507 0.52673,1.55248 0.17661,2.3209 -0.21422,0.47018 -0.43793,0.58448 -1.43631,0.73387 -0.34046,0.051 -0.39959,0.23221 -0.44992,1.37955 -0.0509,1.16016 -0.10455,1.32089 -0.44097,1.32089 -0.36408,0 -0.38302,-0.1551 -0.38302,-3.1358 z m 1.84091,-0.70199 c 0.33813,-0.88115 -0.11707,-1.82685 -0.76049,-1.57995 -0.20428,0.0784 -0.29647,0.38992 -0.29647,1.00186 0,0.80606 0.0433,0.8881 0.469,0.8881 0.25795,0 0.52253,-0.13951 0.58796,-0.31001 z m 3.05764,3.30185 c -0.38691,-0.49187 -0.41628,-0.72495 -0.3572,-2.83536 0.0721,-2.5747 0.19086,-2.83417 1.38645,-3.02818 0.58581,-0.0951 0.79343,-0.0283 1.21135,0.38964 0.48131,0.48131 0.50436,0.60392 0.50436,2.68202 0,2.83022 -0.23566,3.31912 -1.60267,3.32482 -0.55389,0.002 -0.81832,-0.12107 -1.14229,-0.53294 z m 1.66704,-2.60255 v -2.25118 h -0.48998 c -0.48747,0 -0.49025,0.0103 -0.54604,2.02926 -0.058,2.09897 0.10042,2.65327 0.72401,2.53318 0.26375,-0.0508 0.31201,-0.40824 0.31201,-2.31126 z m 3.0378,0.003 v -3.1358 h 1.07793 c 0.81662,0 1.17296,0.095 1.46991,0.39198 0.48722,0.48721 0.52511,1.77202 0.0747,2.53443 -0.29251,0.49518 -0.29225,0.623 0.003,1.63987 0.17633,0.60655 0.37262,1.23839 0.4362,1.40407 0.086,0.2241 -0.0168,0.30125 -0.40149,0.30125 -0.2844,0 -0.55433,-0.11024 -0.59985,-0.24498 -0.0455,-0.13474 -0.22539,-0.7521 -0.39972,-1.37191 -0.17434,-0.61981 -0.39892,-1.12693 -0.49906,-1.12693 -0.10014,0 -0.18208,0.61736 -0.18208,1.37191 0,1.33272 -0.014,1.37191 -0.48997,1.37191 h -0.48997 v -3.1358 z m 1.64987,-0.51093 c 0.20715,-0.0795 0.31001,-0.36516 0.31001,-0.86098 0,-0.69809 -0.23009,-0.97994 -0.79998,-0.97994 -0.099,0 -0.17996,0.44097 -0.17996,0.97994 0,0.97762 0.0841,1.08576 0.66993,0.86098 z m 2.91701,3.20576 c 0.0559,-0.24253 0.30373,-1.65364 0.5507,-3.1358 l 0.44906,-2.69483 h 0.64647 c 0.35555,0 0.64731,0.0661 0.64835,0.14699 0.001,0.0808 0.22067,1.42581 0.48808,2.98881 0.26741,1.563 0.48705,2.90797 0.48808,2.98882 0.001,0.0808 -0.21301,0.14698 -0.47566,0.14698 -0.39553,0 -0.4881,-0.10941 -0.53897,-0.63696 -0.0482,-0.50032 -0.16176,-0.65114 -0.52922,-0.7031 -0.52145,-0.0737 -0.7986,0.23655 -0.80311,0.89909 -0.002,0.34384 -0.11562,0.44097 -0.51422,0.44097 -0.42961,0 -0.49499,-0.0704 -0.40956,-0.44097 z m 1.88133,-2.84182 c -0.0843,-0.51202 -0.16893,-1.06323 -0.18811,-1.22492 -0.0503,-0.42365 -0.32983,0.76493 -0.35728,1.5189 -0.0181,0.49642 0.0564,0.63696 0.33771,0.63696 0.32141,0 0.34414,-0.1019 0.20768,-0.93094 z m 3.15518,0.14699 v -3.1358 h 0.54462 c 0.5171,0 0.56908,0.0866 1.02893,1.71489 l 0.48433,1.71489 0.0566,-1.71489 c 0.0553,-1.67599 0.0676,-1.71489 0.53897,-1.71489 h 0.48234 v 3.1358 3.1358 h -0.48367 c -0.43861,0 -0.53109,-0.15977 -0.99261,-1.71488 -0.7388,-2.48943 -0.77206,-2.50116 -0.83343,-0.29399 -0.0514,1.84735 -0.0868,2.00887 -0.44097,2.00887 -0.36679,0 -0.38513,-0.14926 -0.38513,-3.1358 z m 5.09569,0 v -3.1358 h 1.37191 c 1.24125,0 1.37192,0.0373 1.37192,0.39198 0,0.3339 -0.13067,0.39197 -0.88195,0.39197 h -0.88194 v 0.88194 c 0,0.87728 0.004,0.88195 0.68595,0.88195 0.60103,0 0.68596,0.0607 0.68596,0.48997 0,0.42931 -0.0849,0.48997 -0.68596,0.48997 h -0.68595 v 0.97994 0.97993 h 0.88194 c 0.75128,0 0.88195,0.0581 0.88195,0.39198 0,0.35465 -0.13067,0.39197 -1.37192,0.39197 h -1.37191 z m 4.31235,2.79283 c 5.5e-4,-0.36461 0.463,-3.18567 0.803003,-4.89969 0.19019,-0.95878 0.24299,-1.02894 0.77444,-1.02894 0.66801,0 0.61168,-0.16244 1.24027,3.57678 l 0.45302,2.69482 h -0.45087 c -0.36011,0 -0.47678,-0.13807 -0.57956,-0.68595 -0.1118,-0.59595 -0.20298,-0.68596 -0.69484,-0.68596 -0.42744,0 -0.56615,0.0921 -0.56615,0.37595 0,0.6352 -0.22057,0.99596 -0.608933,0.99596 -0.22292,0 -0.37075,-0.1369 -0.37038,-0.34297 z m 1.841463,-3.03781 c -0.13009,-1.01949 -0.20756,-1.26842 -0.34563,-1.1106 -0.0393,0.0449 -0.13052,0.54468 -0.20273,1.1106 -0.12149,0.952 -0.10099,1.02893 0.27417,1.02893 0.37517,0 0.39567,-0.0769 0.27419,-1.02893 z m -65.855173,2.84182 c 0.0956,-0.32364 1.10105,-6.02496 1.10105,-6.24332 0,-0.0562 0.28663,-0.0745 0.63696,-0.0407 l 0.63696,0.0614 0.53054,2.93981 c 0.66206,3.66851 0.66108,3.62577 0.0825,3.62577 -0.39086,0 -0.48489,-0.12489 -0.59028,-0.78395 -0.10778,-0.67401 -0.19461,-0.78395 -0.61917,-0.78395 -0.50098,0 -0.55265,0.0697 -0.76284,1.02894 -0.0912,0.41606 -0.23198,0.53896 -0.61754,0.53896 -0.38359,0 -0.47595,-0.0796 -0.39815,-0.34298 z m 2.06646,-2.54784 c -0.008,-0.29643 -0.0793,-0.93584 -0.15843,-1.42091 l -0.14389,-0.88195 -0.14605,0.88195 c -0.0803,0.48507 -0.19243,1.12448 -0.24912,1.42091 -0.0857,0.44822 -0.0345,0.53897 0.30446,0.53897 0.31746,0 0.40434,-0.11914 0.39303,-0.53897 z m 48.81545,-3.7353 c 0,-0.3573 0.53841,-0.85932 0.85126,-0.79373 0.30873,0.0647 0.31071,0.10535 0.0249,0.51128 -0.29855,0.42408 -0.87618,0.61028 -0.87618,0.28245 z m -50.56481,-5.94082 v -3.35535 l 1.20507,0.0872 c 0.95533,0.0691 1.28027,0.18003 1.5679,0.53524 0.45094,0.55688 0.47173,1.73088 0.0465,2.62269 -0.29144,0.61115 -0.29118,0.7501 0.003,1.76326 0.17586,0.60491 0.37175,1.2354 0.43533,1.40109 0.0877,0.22854 -0.0223,0.30125 -0.45555,0.30125 -0.54259,0 -0.58895,-0.0686 -0.92698,-1.37192 -0.22363,-0.8622 -0.45611,-1.37191 -0.62574,-1.37191 -0.20353,0 -0.26991,0.33746 -0.26991,1.37191 0,1.33272 -0.014,1.37192 -0.48998,1.37192 h -0.48996 v -3.35534 z m 1.92067,-0.60361 c 0.53156,-0.53155 0.20521,-1.72469 -0.47174,-1.72469 -0.43214,0 -0.469,0.077 -0.469,0.97994 0,0.81298 0.0601,0.97993 0.35278,0.97993 0.19403,0 0.45861,-0.10583 0.58796,-0.23518 z m 45.60633,3.50024 c -1.30167,-0.43064 -1.98364,-0.86217 -2.71756,-1.71959 -1.04854,-1.22498 -1.39818,-2.44572 -1.39818,-4.88161 0,-1.93829 0.039,-2.1414 0.64877,-3.37982 0.69936,-1.42036 1.35506,-2.03694 2.8898,-2.7174 1.14803,-0.509 3.73746,-0.57452 5.18288,-0.13113 l 0.88195,0.27053 0.0601,1.04644 c 0.054,0.94032 0.0242,1.03269 -0.29354,0.91074 -0.90071,-0.34564 -2.38151,-0.54052 -3.34862,-0.44071 -2.09633,0.21636 -3.19033,1.54347 -3.33378,4.04415 -0.13865,2.41673 0.54804,4.08131 1.97158,4.77931 0.89513,0.4389 2.8634,0.46698 4.05107,0.0578 0.95371,-0.32858 1.05441,-0.22501 0.95523,0.98249 -0.0564,0.68641 -0.1338,0.78028 -0.846,1.02556 -1.11277,0.38324 -3.7489,0.46912 -4.70371,0.15324 z m -40.27546,-6.49885 v -6.56559 h 3.82176 c 2.10197,0 3.82176,0.0398 3.82176,0.0883 0,0.0486 -0.0955,0.53366 -0.21223,1.07793 l -0.21223,0.98959 h -2.33561 -2.33561 v 1.5679 1.5679 h 2.35185 2.35185 v 1.07793 1.07794 h -2.35185 -2.35185 v 2.84181 2.84182 h -1.27392 -1.27392 z m 9.79938,0 v -6.56559 h 3.84357 3.84358 l -0.13026,0.73496 c -0.26887,1.51705 -0.0882,1.42091 -2.67041,1.42091 h -2.33864 v 1.5679 1.5679 h 2.35186 2.35185 v 1.07793 1.07794 h -2.35921 -2.35921 l 0.0564,1.81288 0.0564,1.81289 2.49885,0.0548 2.49884,0.0548 v 0.97409 0.97408 h -3.82176 -3.82176 z m 10.19136,0 v -6.56559 l 2.30286,0.003 c 4.65091,0.006 6.3206,0.9889 6.3206,3.72008 0,1.22039 -0.41064,1.99927 -1.30916,2.48315 -0.73853,0.39772 -0.80859,0.57675 -0.29013,0.74131 0.48528,0.15402 0.67394,0.55578 1.68801,3.59478 l 0.86922,2.60488 -1.49257,-0.057 -1.49256,-0.057 -0.72573,-2.30219 c -0.39916,-1.2662 -0.83579,-2.43477 -0.97029,-2.59683 -0.16214,-0.19537 -0.59966,-0.29465 -1.29848,-0.29465 h -1.05393 v 2.64583 2.64583 h -1.27392 -1.27392 z m 5.00523,-1.16645 c 1.16718,-0.48768 1.40479,-1.76309 0.4975,-2.67039 -0.50749,-0.50749 -0.70883,-0.57288 -1.76389,-0.57288 h -1.191 v 1.76389 1.76389 h 0.88824 c 0.48853,0 1.19465,-0.12803 1.56915,-0.28451 z m 6.21242,1.21545 0.0517,-6.51659 1.32291,-0.058 1.32292,-0.058 v 6.57455 6.57453 h -1.37455 -1.37456 z m 15.24068,6.43039 c 0,-0.0569 0.98079,-2.7727 2.17954,-6.03521 1.19874,-3.26251 2.2657,-6.17437 2.37102,-6.4708 0.18809,-0.5294 0.22043,-0.53897 1.82108,-0.53897 h 1.62959 l 0.49854,1.32292 c 1.43833,3.81675 4.239433,11.52328 4.239433,11.66373 0,0.0889 -0.62743,0.13578 -1.39429,0.10411 l -1.394283,-0.0576 -0.53118,-1.46991 -0.53118,-1.4699 h -2.50596 -2.50595 l -0.53119,1.4699 -0.53119,1.46991 -1.40699,0.0576 c -0.77384,0.0317 -1.40699,0.0111 -1.40699,-0.0458 z m 7.5271,-6.72438 c -0.26995,-0.7276 -0.63486,-1.70847 -0.8109,-2.1797 l -0.32007,-0.8568 -0.65267,1.71435 c -1.09079,2.86517 -1.14855,2.64507 0.69411,2.64507 h 1.58036 z m -60.83574,-2.40084 c -0.35713,-0.35714 -0.39197,-0.6533 -0.39197,-3.3318 v -2.93981 h 0.48997 0.48996 v 2.84797 c 0,2.46203 0.0437,2.86474 0.32233,2.97166 0.6632,0.25449 0.8536,-0.46178 0.8536,-3.21126 v -2.60837 h 0.50409 0.50409 l -0.0631,2.91986 c -0.0549,2.54219 -0.11141,2.97314 -0.43647,3.33179 -0.49901,0.55057 -1.73104,0.5614 -2.27248,0.0199 z m 19.05383,-5.14468 c 0.15625,-0.24253 0.52755,-0.85989 0.82512,-1.37192 l 0.54101,-0.93094 h 1.19397 1.19397 l -0.57282,0.63697 c -1.87605,2.08609 -1.90265,2.10686 -2.69863,2.10686 -0.74863,0 -0.76002,-0.0104 -0.48262,-0.44097 z m -18.85784,-6.51659 v -2.84183 h -0.48997 c -0.39198,0 -0.48997,-0.098 -0.48997,-0.48997 0,-0.4818 0.0261,-0.48996 1.5679,-0.48996 1.54177,0 1.5679,0.008 1.5679,0.48996 0,0.41376 -0.0915,0.48997 -0.58796,0.48997 h -0.58796 v 2.84183 2.84182 h -0.48997 -0.48997 z m 6.46759,-5.40379 v -6.48171 l 2.89082,0.0631 c 3.27633,0.0715 3.96526,0.29078 5.02395,1.59882 0.46446,0.57385 0.60342,0.96333 0.66946,1.87632 0.20525,2.83765 -1.21471,4.27991 -4.41004,4.47926 l -1.62635,0.10147 v 2.42222 2.42222 h -1.27392 -1.27392 z m 4.40972,-0.56884 c 1.10559,-0.25616 1.50197,-0.81801 1.43001,-2.02698 -0.0742,-1.24738 -0.64384,-1.72672 -2.20583,-1.85624 l -1.08606,-0.0901 v 2.08214 2.08214 l 0.53897,-0.004 c 0.29643,-0.003 0.89174,-0.0864 1.32291,-0.18631 z m 6.17361,0.58297 v -6.4676 h 3.83734 3.83733 l -0.1282,0.63696 c -0.28523,1.41721 -0.0951,1.32292 -2.66791,1.32292 h -2.34657 l 0.0569,1.6169 0.0569,1.61689 2.30285,0.0552 2.30286,0.0552 v 0.97372 0.97372 h -2.35185 -2.35185 v 1.86188 1.86188 h 2.54784 2.54783 v 0.97994 0.97994 h -3.82176 -3.82176 z m 10.19136,0 v -6.4676 l 2.69484,0.001 c 3.01254,10e-4 3.86966,0.1679 4.77326,0.92823 0.77561,0.65264 1.15536,1.54004 1.15536,2.69989 0,1.19438 -0.41033,1.92575 -1.41988,2.53082 -0.45869,0.27491 -0.68604,0.50067 -0.50522,0.5017 0.58866,0.003 1.13478,0.9995 1.92904,3.51875 0.429,1.36066 0.78001,2.53714 0.78001,2.61431 0,0.0772 -0.64036,0.14031 -1.42302,0.14031 h -1.42302 l -0.66948,-2.17346 c -0.85818,-2.78605 -1.11152,-3.11821 -2.37833,-3.11821 h -0.96572 v 2.64584 2.64583 h -1.27391 -1.27393 z m 5.09568,-1.23355 c 0.69606,-0.35208 1.06572,-1.21034 0.85035,-1.9743 -0.22011,-0.78075 -1.2043,-1.29915 -2.46724,-1.29957 l -0.93095,-3e-4 v 1.76389 1.76389 l 1.02894,-0.003 c 0.56591,-0.002 1.24942,-0.11441 1.5189,-0.25072 z m 6.07562,1.23355 v -6.4676 h 1.37191 1.37191 v 6.4676 6.46759 h -1.37191 -1.37191 z m -39.00154,-4.31173 v -3.3318 h 0.48997 0.48996 v 2.84183 2.84182 h 0.88195 c 0.81008,0 0.88194,0.0399 0.88194,0.48996 0,0.47598 -0.0392,0.48998 -1.37191,0.48998 h -1.37191 z m 0.39197,-6.27161 c -0.35713,-0.35713 -0.39197,-0.65329 -0.39197,-3.33179 v -2.93981 h 0.48458 0.48459 l 0.0544,2.79282 c 0.0521,2.67606 0.0718,2.79531 0.46981,2.85211 0.56762,0.081 0.65661,-0.35653 0.65982,-3.24408 l 0.003,-2.40085 h 0.50795 0.50794 l -0.067,2.95738 c -0.0641,2.83238 -0.0865,2.97321 -0.52966,3.33179 -0.60994,0.49357 -1.68062,0.48495 -2.18315,-0.0176 z m 6.85957,-9.11342 v -6.56559 h 1.27392 1.27392 v 5.48766 5.48765 h 2.64583 2.64583 v 1.07793 1.07793 h -3.91975 -3.91975 z m 8.23148,6.4207 c 0,-0.1436 2.91392,-8.16373 4.2376,-11.66337 l 0.50037,-1.32292 h 1.62499 c 1.58996,0 1.62961,0.0116 1.83984,0.53897 0.60193,1.50991 4.5364,12.30366 4.5364,12.44509 0,0.0904 -0.62743,0.13837 -1.39429,0.1067 l -1.39428,-0.0576 -0.53118,-1.46991 -0.53119,-1.46991 h -2.51866 -2.51867 l -0.53118,1.46991 -0.53118,1.46991 -1.39428,0.0576 c -0.76686,0.0317 -1.39429,-0.0153 -1.39429,-0.10447 z m 7.5271,-6.66569 c -0.26995,-0.7276 -0.63686,-1.71369 -0.81533,-2.19131 l -0.32451,-0.8684 -0.26855,0.65816 c -0.14771,0.362 -0.52035,1.34809 -0.82809,2.19132 l -0.55954,1.53315 h 1.64343 1.64342 z m -22.22617,0.40296 c -0.67729,-0.24206 -0.78395,-0.69532 -0.78395,-3.33123 0,-2.34706 0.0393,-2.64765 0.39197,-3.00035 0.24265,-0.24266 0.65329,-0.39198 1.07793,-0.39198 0.42464,0 0.83528,0.14932 1.07793,0.39198 0.53705,0.53704 0.54788,1.76389 0.0156,1.76389 -0.25886,0 -0.41672,-0.1836 -0.50553,-0.58797 -0.16302,-0.74219 -0.96348,-0.84447 -1.1504,-0.14699 -0.23258,0.86788 -0.13298,3.78291 0.14211,4.15912 0.36093,0.49359 0.84312,0.26764 1.00537,-0.47111 0.0915,-0.41642 0.24774,-0.6012 0.50845,-0.6012 0.30733,0 0.37641,0.14127 0.37641,0.76972 0,1.15494 -1.03258,1.84757 -2.15587,1.44612 z"
       id="path233"
       inkscape:connector-curvature="0"
       inkscape:export-filename="logo.png"
       inkscape:export-xdpi="96"
       inkscape:export-ydpi="96" />
    <path
       style="fill:#ffffff;stroke-width:0.23872335"
       d="M 10.658584,171.84889 V 286.6582 H 124.80821 v -51.22279 h -19.60875 l -0.45683,31.36917 h -74.2286 v -74.91932 h 40.759693 v -20.03637 z"
       id="path237"
       inkscape:connector-curvature="0"
       sodipodi:nodetypes="ccccccccccc" />
    <path
       style="fill:#ffffff;stroke-width:0.19598767"
       d="m -171.97916,317.2679 v -39.98148 h 17.34491 17.3449 v 1.07794 1.07793 h -16.36496 -16.36497 v 37.9236 37.92363 h 37.62963 37.62963 v -14.79707 -14.79707 h 1.07793 1.07793 v 15.777 15.77701 h -39.6875 -39.6875 z m 12.07494,30.86176 c -0.43629,-0.43629 -0.56866,-1.42543 -0.47557,-3.55379 0.0745,-1.70296 0.12716,-1.91704 0.55751,-2.26552 0.35349,-0.28624 0.65203,-0.35617 1.16511,-0.2729 0.82923,0.13456 1.1811,0.56126 1.1811,1.43227 0,0.50343 -0.0822,0.6485 -0.36748,0.6485 -0.2534,0 -0.40484,-0.18683 -0.48785,-0.60187 -0.0973,-0.48638 -0.20539,-0.5898 -0.56347,-0.53897 -0.42428,0.0602 -0.44519,0.15024 -0.49264,2.12078 -0.0537,2.22907 0.10291,2.78787 0.68093,2.43008 0.19171,-0.11867 0.37647,-0.4494 0.41058,-0.73496 0.0432,-0.36121 0.17732,-0.51919 0.44097,-0.51919 0.30891,0 0.37896,0.13928 0.37896,0.75357 0,0.48115 -0.12957,0.87083 -0.35841,1.07793 -0.45018,0.40741 -1.67219,0.42162 -2.06974,0.0241 z m 4.66339,-0.11188 c -0.29963,-0.33076 -0.38701,-0.783 -0.44251,-2.29013 -0.083,-2.25542 0.17567,-3.31174 0.87638,-3.57816 0.78284,-0.29763 1.23371,-0.22189 1.74952,0.29393 0.45751,0.45751 0.48106,0.59665 0.48106,2.84181 0,2.09945 -0.0434,2.40415 -0.39197,2.75275 -0.54158,0.54157 -1.77353,0.53063 -2.27248,-0.0202 z m 1.58652,-2.72632 v -2.25118 h -0.48997 c -0.48748,0 -0.49026,0.0103 -0.54605,2.02926 -0.058,2.09897 0.10042,2.65327 0.72401,2.53318 0.26375,-0.0508 0.31201,-0.40824 0.31201,-2.31126 z m 3.03781,0.003 v -3.1358 h 0.54461 c 0.5171,0 0.56909,0.0866 1.02894,1.71489 l 0.48432,1.71489 0.0566,-1.71489 c 0.0553,-1.67598 0.0676,-1.71489 0.53896,-1.71489 h 0.48234 v 3.1358 3.13581 h -0.47811 c -0.43141,0 -0.52808,-0.16751 -0.98976,-1.71489 -0.74278,-2.48957 -0.78043,-2.50272 -0.84184,-0.29399 -0.0514,1.84735 -0.0868,2.00888 -0.44097,2.00888 -0.36679,0 -0.38512,-0.14927 -0.38512,-3.13581 z m 5.68364,0.39198 v -2.74383 h -0.48997 c -0.35931,0 -0.48997,-0.10452 -0.48997,-0.39197 0,-0.35713 0.13066,-0.39198 1.46991,-0.39198 1.33925,0 1.46991,0.0348 1.46991,0.39198 0,0.28745 -0.13066,0.39197 -0.48997,0.39197 h -0.48997 v 2.74383 2.74383 h -0.48997 -0.48997 z m 3.72377,-0.39198 v -3.1358 h 1.27391 c 1.1307,0 1.27392,0.0428 1.27392,0.3807 0,0.30779 -0.15956,0.39227 -0.83294,0.44098 -0.8289,0.06 -0.83324,0.0643 -0.89322,0.89321 l -0.0603,0.83295 h 0.79521 c 0.71758,0 0.79523,0.0478 0.79523,0.48997 0,0.44207 -0.0777,0.48997 -0.79469,0.48997 h -0.79469 l 0.0597,0.93094 0.0597,0.93095 0.83295,0.0603 c 0.67338,0.0487 0.83294,0.13319 0.83294,0.44097 0,0.3379 -0.14322,0.38071 -1.27392,0.38071 h -1.27391 z m 4.50771,0 v -3.1358 h 0.58423 c 0.44472,0 0.60878,0.10529 0.6871,0.44098 0.0566,0.24253 0.22241,0.97014 0.36852,1.61689 l 0.26565,1.17593 0.20473,-0.78395 c 0.1126,-0.43118 0.28197,-1.13673 0.37639,-1.5679 0.15251,-0.69649 0.24203,-0.79081 0.80239,-0.84536 l 0.63074,-0.0614 v 3.14822 c 0,3.01756 -0.0163,3.14822 -0.39197,3.14822 -0.36748,0 -0.39198,-0.13066 -0.39198,-2.09053 0,-1.1498 -0.0558,-2.03469 -0.12411,-1.96643 -0.0683,0.0683 -0.26981,0.76585 -0.44787,1.55021 -0.46424,2.04496 -0.83224,2.02289 -1.34076,-0.0804 l -0.39327,-1.62661 -0.0229,2.10687 c -0.0214,1.96856 -0.0487,2.10687 -0.4149,2.10687 -0.37564,0 -0.39197,-0.13066 -0.39197,-3.13581 z m 6.07562,0 v -3.1358 h 1.0637 c 0.91571,0 1.12023,0.0718 1.46991,0.5164 0.45235,0.57507 0.52673,1.55248 0.17661,2.3209 -0.21422,0.47018 -0.43794,0.58448 -1.43631,0.73387 -0.34046,0.051 -0.39959,0.23221 -0.44992,1.37955 -0.0509,1.16016 -0.10456,1.32089 -0.44097,1.32089 -0.36408,0 -0.38302,-0.15509 -0.38302,-3.13581 z m 1.84091,-0.70198 c 0.33812,-0.88114 -0.11708,-1.82685 -0.76049,-1.57995 -0.20429,0.0784 -0.29647,0.38992 -0.29647,1.00187 0,0.80605 0.0433,0.88809 0.469,0.88809 0.25795,0 0.52253,-0.13951 0.58796,-0.31001 z m 3.05764,3.30185 c -0.38692,-0.49187 -0.41628,-0.72495 -0.3572,-2.83535 0.0721,-2.5747 0.19086,-2.83417 1.38645,-3.02819 0.58581,-0.0951 0.79343,-0.0283 1.21135,0.38964 0.48131,0.48131 0.50436,0.60392 0.50436,2.68202 0,2.83021 -0.23566,3.31913 -1.60267,3.32482 -0.55389,0.002 -0.81832,-0.12107 -1.14229,-0.53294 z m 1.66703,-2.60255 v -2.25117 h -0.48997 c -0.48748,0 -0.49025,0.0103 -0.54604,2.02925 -0.058,2.09898 0.10041,2.65327 0.72401,2.53318 0.26375,-0.0508 0.312,-0.40824 0.312,-2.31126 z m 3.03781,0.003 v -3.13581 h 1.07793 c 0.81662,0 1.17296,0.095 1.46991,0.39198 0.48722,0.48722 0.5251,1.77202 0.0747,2.53443 -0.29251,0.49519 -0.29225,0.623 0.003,1.63988 0.17633,0.60655 0.37262,1.23839 0.4362,1.40407 0.086,0.2241 -0.0168,0.30125 -0.40149,0.30125 -0.2844,0 -0.55433,-0.11025 -0.59985,-0.24498 -0.0455,-0.13474 -0.22539,-0.7521 -0.39973,-1.37192 -0.17433,-0.61981 -0.39891,-1.12693 -0.49905,-1.12693 -0.10015,0 -0.18208,0.61736 -0.18208,1.37192 0,1.33271 -0.014,1.37191 -0.48997,1.37191 h -0.48997 v -3.1358 z m 1.64987,-0.51094 c 0.20715,-0.0795 0.31001,-0.36516 0.31001,-0.86098 0,-0.69809 -0.23009,-0.97994 -0.79999,-0.97994 -0.099,0 -0.17995,0.44098 -0.17995,0.97994 0,0.97762 0.0841,1.08576 0.66993,0.86098 z m 2.91701,3.20577 c 0.0559,-0.24254 0.30373,-1.65365 0.5507,-3.1358 l 0.44906,-2.69484 h 0.64647 c 0.35555,0 0.64731,0.0661 0.64835,0.147 0.001,0.0808 0.22067,1.4258 0.48808,2.98881 0.26741,1.563 0.48705,2.90797 0.48808,2.98881 10e-4,0.0808 -0.21301,0.14699 -0.47566,0.14699 -0.39553,0 -0.4881,-0.10941 -0.53897,-0.63696 -0.0482,-0.50033 -0.16176,-0.65115 -0.52922,-0.7031 -0.52145,-0.0737 -0.7986,0.23654 -0.80311,0.89909 -0.002,0.34383 -0.11562,0.44097 -0.51422,0.44097 -0.42961,0 -0.49499,-0.0704 -0.40956,-0.44097 z m 1.88133,-2.84183 c -0.0843,-0.51201 -0.16893,-1.06323 -0.18811,-1.22492 -0.0503,-0.42364 -0.32983,0.76494 -0.35728,1.51891 -0.0181,0.49641 0.0564,0.63696 0.33771,0.63696 0.32141,0 0.34414,-0.1019 0.20768,-0.93095 z m 3.15518,0.147 v -3.13581 h 0.54462 c 0.5171,0 0.56908,0.0866 1.02893,1.7149 l 0.48433,1.71489 0.0566,-1.71489 c 0.0553,-1.67599 0.0676,-1.7149 0.53897,-1.7149 h 0.48234 v 3.13581 3.1358 h -0.48367 c -0.43861,0 -0.53109,-0.15977 -0.99261,-1.71489 -0.7388,-2.48942 -0.77207,-2.50116 -0.83343,-0.29398 -0.0514,1.84734 -0.0868,2.00887 -0.44097,2.00887 -0.36679,0 -0.38513,-0.14927 -0.38513,-3.1358 z m 5.09569,0 v -3.13581 h 1.37191 c 1.24125,0 1.37191,0.0373 1.37191,0.39198 0,0.33391 -0.13066,0.39197 -0.88194,0.39197 h -0.88194 v 0.88195 c 0,0.87728 0.004,0.88194 0.68595,0.88194 0.60103,0 0.68596,0.0607 0.68596,0.48997 0,0.42931 -0.0849,0.48997 -0.68596,0.48997 h -0.68595 v 0.97994 0.97994 h 0.88194 c 0.75128,0 0.88194,0.0581 0.88194,0.39198 0,0.35464 -0.13066,0.39197 -1.37191,0.39197 h -1.37191 z m 4.31235,2.79282 c 5.5e-4,-0.3646 0.463,-3.18567 0.803,-4.89969 0.19019,-0.95878 0.24299,-1.02894 0.77444,-1.02894 0.66801,0 0.61168,-0.16244 1.24027,3.57678 l 0.45302,2.69483 h -0.45087 c -0.36011,0 -0.47678,-0.13808 -0.57956,-0.68596 -0.1118,-0.59594 -0.20298,-0.68595 -0.69484,-0.68595 -0.42744,0 -0.56615,0.0921 -0.56615,0.37594 0,0.63521 -0.22057,0.99597 -0.60893,0.99597 -0.22292,0 -0.37076,-0.1369 -0.37038,-0.34298 z m 1.84146,-3.0378 c -0.13009,-1.0195 -0.20756,-1.26842 -0.34563,-1.1106 -0.0393,0.0449 -0.13052,0.54468 -0.20273,1.1106 -0.12149,0.952 -0.10099,1.02893 0.27417,1.02893 0.37517,0 0.39567,-0.0769 0.27419,-1.02893 z m -65.85517,2.84181 c 0.0956,-0.32364 1.10105,-6.02496 1.10105,-6.24331 0,-0.0562 0.28663,-0.0745 0.63696,-0.0407 l 0.63696,0.0614 0.53054,2.93982 c 0.66206,3.66851 0.66109,3.62576 0.0825,3.62576 -0.39086,0 -0.48489,-0.12489 -0.59028,-0.78395 -0.10778,-0.674 -0.19461,-0.78395 -0.61917,-0.78395 -0.50098,0 -0.55265,0.0697 -0.76284,1.02894 -0.0912,0.41607 -0.23198,0.53896 -0.61754,0.53896 -0.38359,0 -0.47595,-0.0796 -0.39815,-0.34297 z m 2.06646,-2.54784 c -0.008,-0.29642 -0.0793,-0.93584 -0.15843,-1.42091 l -0.14389,-0.88194 -0.14605,0.88194 c -0.0803,0.48507 -0.19243,1.12449 -0.24912,1.42091 -0.0857,0.44822 -0.0345,0.53897 0.30446,0.53897 0.31747,0 0.40434,-0.11914 0.39303,-0.53897 z m 48.81545,-3.7353 c 0,-0.3573 0.53841,-0.85931 0.85126,-0.79372 0.30873,0.0647 0.31071,0.10535 0.0249,0.51128 -0.29855,0.42407 -0.87618,0.61027 -0.87618,0.28244 z m -50.56481,-5.94082 v -3.35535 l 1.20507,0.0872 c 0.95533,0.0691 1.28027,0.18003 1.5679,0.53524 0.45094,0.55688 0.47173,1.73088 0.0465,2.62268 -0.29144,0.61116 -0.29118,0.7501 0.003,1.76327 0.17586,0.60491 0.37175,1.2354 0.43533,1.40109 0.0877,0.22854 -0.0223,0.30125 -0.45555,0.30125 -0.54259,0 -0.58895,-0.0686 -0.92698,-1.37192 -0.22363,-0.8622 -0.45611,-1.37191 -0.62574,-1.37191 -0.20353,0 -0.26991,0.33746 -0.26991,1.37191 0,1.33272 -0.014,1.37192 -0.48998,1.37192 h -0.48996 v -3.35534 z m 1.92067,-0.60361 c 0.53156,-0.53156 0.20521,-1.72469 -0.47174,-1.72469 -0.43214,0 -0.469,0.077 -0.469,0.97993 0,0.813 0.0601,0.97994 0.35278,0.97994 0.19403,0 0.45861,-0.10583 0.58796,-0.23518 z m 45.60633,3.50024 c -1.30168,-0.43065 -1.98364,-0.86217 -2.71756,-1.7196 -1.04854,-1.22496 -1.39818,-2.44571 -1.39818,-4.8816 0,-1.93829 0.039,-2.14141 0.64876,-3.37982 0.69937,-1.42036 1.35507,-2.03694 2.88981,-2.7174 1.14803,-0.509 3.73746,-0.57452 5.18288,-0.13114 l 0.88195,0.27054 0.0601,1.04644 c 0.054,0.94032 0.0242,1.03268 -0.29354,0.91073 -0.90071,-0.34563 -2.38151,-0.54051 -3.34862,-0.4407 -2.09634,0.21636 -3.19033,1.54347 -3.33379,4.04414 -0.13864,2.41674 0.54805,4.08132 1.97159,4.77932 0.89513,0.4389 2.8634,0.46698 4.05107,0.0578 0.9537,-0.32857 1.0544,-0.225 0.95523,0.9825 -0.0564,0.68641 -0.1338,0.78028 -0.846,1.02557 -1.11277,0.38323 -3.7489,0.46911 -4.70371,0.15323 z m -40.27546,-6.49885 v -6.56559 h 3.82176 c 2.10197,0 3.82176,0.0398 3.82176,0.0883 0,0.0486 -0.0955,0.53366 -0.21223,1.07793 l -0.21223,0.98959 h -2.33561 -2.33561 v 1.5679 1.5679 h 2.35185 2.35185 v 1.07793 1.07793 h -2.35185 -2.35185 v 2.84182 2.84182 h -1.27392 -1.27392 z m 9.79938,0 v -6.56559 h 3.84358 3.84357 l -0.13026,0.73496 c -0.26886,1.51705 -0.0882,1.42091 -2.6704,1.42091 h -2.33865 v 1.5679 1.5679 h 2.35186 2.35185 v 1.07793 1.07793 h -2.35921 -2.3592 l 0.0564,1.81289 0.0563,1.81289 2.49884,0.0548 2.49884,0.0548 v 0.97408 0.97408 h -3.82176 -3.82176 z m 10.19136,0 v -6.56559 l 2.30285,0.003 c 4.65092,0.006 6.32061,0.98891 6.32061,3.72009 0,1.22039 -0.41064,1.99926 -1.30916,2.48315 -0.73853,0.39772 -0.80859,0.57675 -0.29013,0.74131 0.48528,0.15401 0.67394,0.55578 1.68801,3.59478 l 0.86922,2.60488 -1.49257,-0.0571 -1.49256,-0.057 -0.72574,-2.30219 c -0.39915,-1.2662 -0.83578,-2.43477 -0.97028,-2.59683 -0.16215,-0.19537 -0.59967,-0.29466 -1.29848,-0.29466 h -1.05393 v 2.64584 2.64583 h -1.27392 -1.27392 z m 5.00523,-1.16645 c 1.16718,-0.48767 1.40479,-1.7631 0.4975,-2.67039 -0.5075,-0.50749 -0.70884,-0.57288 -1.76389,-0.57288 h -1.191 v 1.76389 1.76388 h 0.88824 c 0.48852,0 1.19465,-0.12802 1.56915,-0.2845 z m 6.21242,1.21544 0.0517,-6.51659 1.32291,-0.058 1.32292,-0.058 v 6.57454 6.57454 h -1.37456 -1.37455 z m 15.24068,6.4304 c 0,-0.0569 0.98079,-2.7727 2.17954,-6.03521 1.19874,-3.26251 2.2657,-6.17437 2.37102,-6.4708 0.18809,-0.5294 0.22043,-0.53897 1.82108,-0.53897 h 1.62959 l 0.49854,1.32292 c 1.43833,3.81675 4.23943,11.52327 4.23943,11.66373 0,0.0889 -0.62743,0.13578 -1.39429,0.10411 l -1.39428,-0.0576 -0.53118,-1.46991 -0.53118,-1.4699 h -2.50596 -2.50595 l -0.53119,1.4699 -0.53119,1.46991 -1.40699,0.0576 c -0.77384,0.0317 -1.40699,0.0111 -1.40699,-0.0458 z m 7.5271,-6.72438 c -0.26995,-0.72759 -0.63486,-1.70847 -0.8109,-2.17971 l -0.32007,-0.85679 -0.65267,1.71435 c -1.09079,2.86517 -1.14855,2.64507 0.69411,2.64507 h 1.58036 z m -60.83574,-2.40084 c -0.35713,-0.35714 -0.39197,-0.6533 -0.39197,-3.3318 v -2.93981 h 0.48997 0.48996 v 2.84797 c 0,2.46203 0.0437,2.86474 0.32233,2.97166 0.6632,0.2545 0.8536,-0.46179 0.8536,-3.21126 v -2.60837 h 0.50409 0.50409 l -0.0631,2.91986 c -0.0549,2.54218 -0.11141,2.97314 -0.43647,3.33179 -0.49901,0.55057 -1.73104,0.56139 -2.27248,0.0199 z m 19.05383,-5.14468 c 0.15626,-0.24254 0.52756,-0.8599 0.82512,-1.37192 l 0.54101,-0.93094 h 1.19398 1.19396 l -0.57282,0.63696 c -1.87604,2.0861 -1.90265,2.10687 -2.69863,2.10687 -0.74863,0 -0.76001,-0.0104 -0.48262,-0.44097 z m -18.85784,-6.5166 v -2.84182 h -0.48997 c -0.39198,0 -0.48997,-0.098 -0.48997,-0.48997 0,-0.4818 0.0261,-0.48997 1.5679,-0.48997 1.54177,0 1.5679,0.008 1.5679,0.48997 0,0.41375 -0.0915,0.48997 -0.58796,0.48997 h -0.58796 v 2.84182 2.84183 h -0.48997 -0.48997 z m 6.46759,-5.40378 v -6.48171 l 2.89082,0.0631 c 3.27633,0.0715 3.96526,0.29078 5.02395,1.59883 0.46446,0.57385 0.60342,0.96332 0.66946,1.87631 0.20525,2.83766 -1.21471,4.27992 -4.41003,4.47927 l -1.62636,0.10146 v 2.42222 2.42223 h -1.27392 -1.27392 z m 4.40972,-0.56885 c 1.10559,-0.25616 1.50197,-0.81801 1.43001,-2.02697 -0.0742,-1.24738 -0.64384,-1.72672 -2.20583,-1.85625 l -1.08606,-0.0901 v 2.08213 2.08214 l 0.53897,-0.004 c 0.29643,-0.003 0.89174,-0.0864 1.32291,-0.18631 z m 6.17361,0.58297 v -6.46804 h 3.83734 3.83733 l -0.1282,0.63696 c -0.28523,1.4172 -0.0951,1.32291 -2.6679,1.32291 h -2.34658 l 0.0569,1.6169 0.0569,1.6169 2.30285,0.0552 2.30286,0.0552 v 0.97373 0.97371 h -2.35185 -2.35185 v 1.86189 1.86188 h 2.54784 2.54784 v 0.97994 0.97994 h -3.82176 -3.82177 z m 10.19136,0 v -6.46804 l 2.69483,10e-4 c 3.01255,0.001 3.86967,0.1679 4.77327,0.92823 0.77561,0.65263 1.15536,1.54003 1.15536,2.69988 0,1.19438 -0.41033,1.92576 -1.41988,2.53083 -0.45869,0.27491 -0.68604,0.50067 -0.50522,0.50169 0.58866,0.003 1.13478,0.99951 1.92904,3.51875 0.429,1.36067 0.78001,2.53715 0.78001,2.61432 0,0.0772 -0.64036,0.14031 -1.42302,0.14031 h -1.42302 l -0.66948,-2.17346 c -0.85818,-2.78605 -1.11152,-3.11821 -2.37833,-3.11821 h -0.96572 v 2.64584 2.64583 h -1.27392 -1.27392 z m 5.09568,-1.23355 c 0.69606,-0.35207 1.06572,-1.21034 0.85035,-1.9743 -0.22011,-0.78075 -1.2043,-1.29915 -2.46725,-1.29956 l -0.93094,-3.1e-4 v 1.76389 1.76389 l 1.02894,-0.003 c 0.56591,-0.002 1.24941,-0.11441 1.5189,-0.25071 z m 6.07562,1.23355 v -6.46804 h 1.37191 1.37191 v 6.46759 6.4676 h -1.37191 -1.37191 z m -39.00154,-4.31173 v -3.33179 h 0.48997 0.48996 v 2.84182 2.84182 h 0.88195 c 0.81008,0 0.88194,0.04 0.88194,0.48997 0,0.47597 -0.0392,0.48997 -1.37191,0.48997 h -1.37191 z m 0.39197,-6.2716 c -0.35713,-0.35714 -0.39197,-0.6533 -0.39197,-3.33179 v -2.93982 h 0.48458 0.48459 l 0.0544,2.79282 c 0.0521,2.67606 0.0717,2.79531 0.46981,2.85211 0.56762,0.081 0.65661,-0.35652 0.65983,-3.24408 l 0.003,-2.40085 h 0.50795 0.50794 l -0.067,2.95739 c -0.0641,2.83238 -0.0865,2.97321 -0.52967,3.33178 -0.60994,0.49358 -1.68062,0.48495 -2.18315,-0.0175 z m 6.85957,-9.11342 v -6.56559 h 1.27392 1.27392 v 5.48765 5.48765 h 2.64583 2.64584 v 1.07794 1.07793 h -3.91975 -3.91976 z m 8.23148,6.42069 c 0,-0.14359 2.91393,-8.16373 4.2376,-11.66337 l 0.50038,-1.32291 h 1.62498 c 1.58996,0 1.62962,0.0116 1.83984,0.53896 0.60194,1.50991 4.5364,12.30366 4.5364,12.44509 0,0.0904 -0.62744,0.13837 -1.39429,0.10671 l -1.39428,-0.0576 -0.53118,-1.46991 -0.53119,-1.4699 h -2.51866 -2.51866 l -0.53119,1.4699 -0.53117,1.46991 -1.39429,0.0576 c -0.76686,0.0317 -1.39429,-0.0153 -1.39429,-0.10448 z m 7.5271,-6.66568 c -0.26995,-0.7276 -0.63686,-1.7137 -0.81533,-2.19131 l -0.32451,-0.8684 -0.26855,0.65816 c -0.14771,0.36199 -0.52035,1.34808 -0.82809,2.19131 l -0.55953,1.53316 h 1.64342 1.64342 z m -22.22617,0.40295 c -0.67729,-0.24205 -0.78395,-0.69532 -0.78395,-3.33123 0,-2.34706 0.0393,-2.64764 0.39197,-3.00035 0.24265,-0.24265 0.65329,-0.39197 1.07793,-0.39197 0.42465,0 0.83528,0.14932 1.07793,0.39197 0.53705,0.53704 0.54788,1.76389 0.0156,1.76389 -0.25887,0 -0.41673,-0.18359 -0.50554,-0.58796 -0.16302,-0.74219 -0.96348,-0.84448 -1.1504,-0.14699 -0.23258,0.86788 -0.13298,3.78291 0.14211,4.15912 0.36093,0.49359 0.84312,0.26763 1.00538,-0.47111 0.0915,-0.41642 0.24773,-0.60121 0.50845,-0.60121 0.30732,0 0.3764,0.14128 0.3764,0.76973 0,1.15493 -1.03258,1.84757 -2.15587,1.44611 z"
       id="path233-3"
       inkscape:connector-curvature="0"
       inkscape:export-filename="logo.png"
       inkscape:export-xdpi="96"
       inkscape:export-ydpi="96" />
  </g>
</svg>
